<?xml version="1.0" encoding="UTF-8" standalone="no"?>
<!-- Created with Inkscape (http://www.inkscape.org/) -->

<svg
   xmlns:dc="http://purl.org/dc/elements/1.1/"
   xmlns:cc="http://creativecommons.org/ns#"
   xmlns:rdf="http://www.w3.org/1999/02/22-rdf-syntax-ns#"
   xmlns:svg="http://www.w3.org/2000/svg"
   xmlns="http://www.w3.org/2000/svg"
   xmlns:sodipodi="http://sodipodi.sourceforge.net/DTD/sodipodi-0.dtd"
   xmlns:inkscape="http://www.inkscape.org/namespaces/inkscape"
   id="svg4190"
   version="1.1"
   inkscape:version="0.91 r"
   width="64.74617mm"
   height="34.336403mm"
   viewBox="0 0 229.41555 121.66442"
   sodipodi:docname="cocodrilos.svg">
  <metadata
     id="metadata4196">
    <rdf:RDF>
      <cc:Work
         rdf:about="">
        <dc:format>image/svg+xml</dc:format>
        <dc:type
           rdf:resource="http://purl.org/dc/dcmitype/StillImage" />
        <dc:title></dc:title>
      </cc:Work>
    </rdf:RDF>
  </metadata>
  <defs
     id="defs4194" />
  <sodipodi:namedview
     pagecolor="#ffffff"
     bordercolor="#666666"
     borderopacity="1"
     objecttolerance="10"
     gridtolerance="10"
     guidetolerance="10"
     inkscape:pageopacity="0"
     inkscape:pageshadow="2"
     inkscape:window-width="1920"
     inkscape:window-height="1028"
     id="namedview4192"
     showgrid="false"
     units="mm"
     inkscape:document-units="mm"
     fit-margin-top="0"
     fit-margin-left="0"
     fit-margin-right="0"
     fit-margin-bottom="0"
     inkscape:zoom="2.5622222"
     inkscape:cx="144.96084"
     inkscape:cy="81.211633"
     inkscape:window-x="0"
     inkscape:window-y="25"
     inkscape:window-maximized="1"
     inkscape:current-layer="svg4190" />
  <path
     style="opacity:1;fill:#898a7c;fill-opacity:1;fill-rule:nonzero;stroke:none;stroke-width:0.40000001;stroke-linecap:butt;stroke-linejoin:miter;stroke-miterlimit:4;stroke-dasharray:none;stroke-opacity:1"
     d="m 31.515509,21.711688 -30.4012299,2.22348 c -2.51734,0.18411 -0.14150998,8.89228 0.99955,8.80882 0.15036,-0.011 1.27222,-3.64582 2.39209,-3.72772 0.89622,-0.0656 2.14181,3.39612 2.90901,3.34001 0.7241802,-0.053 1.5130802,-3.66343 2.3920902,-3.72772 1.1198597,-0.0819 2.1504297,3.39549 2.9090097,3.34001 0.71558,-0.0523 1.42706,-3.65714 2.39209,-3.72772 1.00804,-0.0737 2.27944,3.38606 2.90901,3.34001 0.59515,-0.0435 1.51308,-3.66344 2.39209,-3.72772 0.98334,-0.0719 2.34964,3.37381 2.9085,3.33294 0.91153,-0.0667 1.42085,-3.64958 2.3926,-3.72066 l 6.19287,-0.45293 z"
     id="rect4298"
     inkscape:connector-curvature="0"
     sodipodi:nodetypes="cssssssssssscc" />
  <path
     style="opacity:1;fill:#256954;fill-opacity:1;fill-rule:nonzero;stroke:none;stroke-width:0.40000001;stroke-linecap:butt;stroke-linejoin:miter;stroke-miterlimit:4;stroke-dasharray:none;stroke-opacity:1"
     d="M 125.72629,18.657298 C 113.86038,18.158518 105.7586,3.335408 93.836523,0.94075804 72.864711,-3.271602 30.056999,8.027378 30.056999,8.027378 l 0,31.88976 c 0,0 42.557723,5.27855 63.779524,3.54331 10.853007,-0.88741 20.782057,-6.65441 31.889767,-7.08661 7.08125,-0.27553 21.25984,0 21.25984,0 l 0,-17.71654 c 0,0 -14.17948,0.29762 -21.25984,0 z"
     id="rect4206"
     inkscape:connector-curvature="0"
     sodipodi:nodetypes="ssccssccs" />
  <path
     style="opacity:1;fill:#898a7c;fill-opacity:1;fill-rule:nonzero;stroke:none;stroke-width:0.40000001;stroke-linecap:butt;stroke-linejoin:miter;stroke-miterlimit:4;stroke-dasharray:none;stroke-opacity:1"
     d="m 28.639679,32.830528 c -1.47638,0 -2.05925,-3.54331 -2.65748,-3.54331 -0.59824,0 -1.86411,3.54331 -2.65748,3.54331 -0.52506,0 -1.8885,-3.54331 -2.65749,-3.54331 -0.6958,0 -1.98606,3.54331 -2.65748,3.54331 -0.52505,0 -1.93728,-3.54331 -2.65748,-3.54331 -0.52505,0 -1.98606,3.54331 -2.65748,3.54331 -0.62262,0 -1.83971,-3.54331 -2.65748,-3.54331 -0.5494497,0 -1.9616697,3.54331 -2.6574799,3.54331 -0.50066,0 -2.20494,-3.54331 -2.65748,-3.54331 -0.52505,0 -2.19061,2.14269 -2.65748,3.54331 -0.56024,1.68074 -1.20723998,5.31496 0,5.31496 l 26.5748099,0 1.41644,0 8.8e-4,-5.31496 z"
     id="rect4280-9"
     inkscape:connector-curvature="0"
     sodipodi:nodetypes="sssssssssssscccs" />
  <path
     style="opacity:1;fill:#898a7c;fill-opacity:1;fill-rule:nonzero;stroke:none;stroke-width:0.40000001;stroke-linecap:butt;stroke-linejoin:miter;stroke-miterlimit:4;stroke-dasharray:none;stroke-opacity:1"
     d="m 197.9,99.952758 30.40123,-2.22348 c 2.51734,-0.18411 0.14151,-8.89228 -0.99955,-8.80882 -0.15036,0.011 -1.27222,3.64582 -2.39209,3.72772 -0.89622,0.0656 -2.14181,-3.39612 -2.90901,-3.34001 -0.72418,0.053 -1.51308,3.66343 -2.39209,3.72772 -1.11986,0.0819 -2.15043,-3.39549 -2.90901,-3.34001 -0.71558,0.0523 -1.42706,3.65714 -2.39209,3.72772 -1.00804,0.0737 -2.27944,-3.38606 -2.90901,-3.34001 -0.59515,0.0435 -1.51308,3.66344 -2.39209,3.72772 -0.98334,0.0719 -2.34964,-3.37381 -2.9085,-3.33294 -0.91153,0.0667 -1.42085,3.64958 -2.3926,3.72066 l -6.19287,0.45293 z"
     id="rect4298-5"
     inkscape:connector-curvature="0"
     sodipodi:nodetypes="cssssssssssscc" />
  <path
     style="opacity:1;fill:#256954;fill-opacity:1;fill-rule:nonzero;stroke:none;stroke-width:0.40000001;stroke-linecap:butt;stroke-linejoin:miter;stroke-miterlimit:4;stroke-dasharray:none;stroke-opacity:1"
     d="m 103.68923,103.00715 c 11.86591,0.49878 19.96768,15.3219 31.88976,17.7165 20.97181,4.2124 63.77952,-7.0866 63.77952,-7.0866 l 0,-31.889742 c 0,0 -42.55772,-5.27855 -63.77952,-3.54331 -10.85301,0.88741 -20.78205,6.65441 -31.88976,7.08661 -7.081253,0.27553 -21.259843,0 -21.259843,0 l 0,17.716542 c 0,0 14.17948,-0.29762 21.259843,0 z"
     id="rect4206-6"
     inkscape:connector-curvature="0"
     sodipodi:nodetypes="ssccssccs" />
  <path
     style="opacity:1;fill:#898a7c;fill-opacity:1;fill-rule:nonzero;stroke:none;stroke-width:0.40000001;stroke-linecap:butt;stroke-linejoin:miter;stroke-miterlimit:4;stroke-dasharray:none;stroke-opacity:1"
     d="m 200.77583,88.833918 c 1.47638,0 2.05925,3.54331 2.65748,3.54331 0.59824,0 1.86411,-3.54331 2.65748,-3.54331 0.52506,0 1.8885,3.54331 2.65749,3.54331 0.6958,0 1.98606,-3.54331 2.65748,-3.54331 0.52505,0 1.93728,3.54331 2.65748,3.54331 0.52505,0 1.98606,-3.54331 2.65748,-3.54331 0.62262,0 1.83971,3.54331 2.65748,3.54331 0.54945,0 1.96167,-3.54331 2.65748,-3.54331 0.50066,0 2.20494,3.54331 2.65748,3.54331 0.52505,0 2.19061,-2.14269 2.65748,-3.54331 0.56024,-1.68074 1.20724,-5.31496 0,-5.31496 l -26.57481,0 -1.41644,0 -8.8e-4,5.31496 z"
     id="rect4280-9-8"
     inkscape:connector-curvature="0"
     sodipodi:nodetypes="sssssssssssscccs" />
  <path
     style="fill:none;fill-rule:evenodd;stroke:#256954;stroke-width:8.1496067;stroke-linecap:butt;stroke-linejoin:miter;stroke-miterlimit:4;stroke-dasharray:none;stroke-opacity:1"
     d="m 87.371887,94.518998 c 0,0 -54.049313,3.6353 -54.700899,-13.6805 -2.124059,-56.44654 158.124402,17.89501 162.890052,-38.62144 1.78853,-21.21048 -52.14641,-14.71239 -52.14641,-14.71239"
     id="path4370"
     inkscape:connector-curvature="0"
     sodipodi:nodetypes="cssc" />
</svg>
