<?xml version="1.0" encoding="UTF-8" standalone="no"?>
<!-- Created with Inkscape (http://www.inkscape.org/) -->

<svg
   xmlns:dc="http://purl.org/dc/elements/1.1/"
   xmlns:cc="http://creativecommons.org/ns#"
   xmlns:rdf="http://www.w3.org/1999/02/22-rdf-syntax-ns#"
   xmlns:svg="http://www.w3.org/2000/svg"
   xmlns="http://www.w3.org/2000/svg"
   xmlns:sodipodi="http://sodipodi.sourceforge.net/DTD/sodipodi-0.dtd"
   xmlns:inkscape="http://www.inkscape.org/namespaces/inkscape"
   id="svg6428"
   version="1.1"
   inkscape:version="0.91 r"
   width="4.7999997mm"
   height="18.299999mm"
   viewBox="0 0 17.007873 64.842515"
   sodipodi:docname="bjt.svg">
  <metadata
     id="metadata6434">
    <rdf:RDF>
      <cc:Work
         rdf:about="">
        <dc:format>image/svg+xml</dc:format>
        <dc:type
           rdf:resource="http://purl.org/dc/dcmitype/StillImage" />
        <dc:title />
      </cc:Work>
    </rdf:RDF>
  </metadata>
  <defs
     id="defs6432" />
  <sodipodi:namedview
     pagecolor="#ffffff"
     bordercolor="#666666"
     borderopacity="1"
     objecttolerance="10"
     gridtolerance="10"
     guidetolerance="10"
     inkscape:pageopacity="0"
     inkscape:pageshadow="2"
     inkscape:window-width="1920"
     inkscape:window-height="1028"
     id="namedview6430"
     showgrid="false"
     inkscape:document-units="mm"
     units="mm"
     fit-margin-top="0"
     fit-margin-left="0"
     fit-margin-right="0"
     fit-margin-bottom="0"
     inkscape:zoom="23.602521"
     inkscape:cx="15.963439"
     inkscape:cy="57.109151"
     inkscape:window-x="0"
     inkscape:window-y="25"
     inkscape:window-maximized="1"
     inkscape:current-layer="svg6428" />
  <rect
     style="opacity:1;fill:#2c2019;fill-opacity:1;fill-rule:nonzero;stroke:none;stroke-width:0.40000001;stroke-linecap:butt;stroke-linejoin:miter;stroke-miterlimit:4;stroke-dasharray:none;stroke-opacity:1"
     id="rect6978"
     width="17.007874"
     height="17.007874"
     x="0"
     y="0" />
  <rect
     style="opacity:1;fill:#4b5154;fill-opacity:1;fill-rule:nonzero;stroke:none;stroke-width:0.40000001;stroke-linecap:butt;stroke-linejoin:miter;stroke-miterlimit:4;stroke-dasharray:none;stroke-opacity:1"
     id="rect6980"
     width="14.704724"
     height="17.007874"
     x="1.1515749"
     y="0" />
  <rect
     style="opacity:1;fill:#d2d5da;fill-opacity:1;fill-rule:nonzero;stroke:none;stroke-width:0.40000001;stroke-linecap:butt;stroke-linejoin:miter;stroke-miterlimit:4;stroke-dasharray:none;stroke-opacity:1"
     id="rect7003"
     width="1.7716535"
     height="47.834644"
     x="2.6574802"
     y="17.007874" />
  <rect
     style="opacity:1;fill:#d2d5da;fill-opacity:1;fill-rule:nonzero;stroke:none;stroke-width:0.40000001;stroke-linecap:butt;stroke-linejoin:miter;stroke-miterlimit:4;stroke-dasharray:none;stroke-opacity:1"
     id="rect7003-6"
     width="1.7716535"
     height="47.834644"
     x="7.6181102"
     y="17.007874" />
  <rect
     style="opacity:1;fill:#d2d5da;fill-opacity:1;fill-rule:nonzero;stroke:none;stroke-width:0.40000001;stroke-linecap:butt;stroke-linejoin:miter;stroke-miterlimit:4;stroke-dasharray:none;stroke-opacity:1"
     id="rect7003-67"
     width="1.7716535"
     height="47.834644"
     x="12.57874"
     y="17.007874" />
  <g
     style="font-style:normal;font-variant:normal;font-weight:normal;font-stretch:normal;font-size:5px;line-height:100%;font-family:Sans;-inkscape-font-specification:'Sans, Normal';text-align:start;letter-spacing:0px;word-spacing:0px;writing-mode:lr-tb;text-anchor:start;fill:#cfd3d0;fill-opacity:1;stroke:none;stroke-width:1px;stroke-linecap:butt;stroke-linejoin:miter;stroke-opacity:1"
     id="text4144">
    <path
       d="m 2.8480946,3.6589913 0,1.3354493 0.7910156,0 q 0.3979492,0 0.5883789,-0.1635743 0.1928711,-0.1660156 0.1928711,-0.5053711 0,-0.3417968 -0.1928711,-0.5029296 Q 4.0370594,3.6589913 3.6391102,3.6589913 l -0.7910156,0 z m 0,-1.4990234 0,1.0986328 0.7299805,0 q 0.3613281,0 0.5371093,-0.1342773 0.1782227,-0.1367188 0.1782227,-0.4150391 0,-0.2758789 -0.1782227,-0.4125977 Q 3.9394032,2.1599679 3.5780751,2.1599679 l -0.7299805,0 z m -0.4931641,-0.4052734 1.2597656,0 q 0.5639649,0 0.8691407,0.234375 0.3051758,0.234375 0.3051758,0.6665039 0,0.3344726 -0.15625,0.5322265 -0.15625,0.1977539 -0.4589844,0.2465821 0.3637695,0.078125 0.5639648,0.3271484 0.2026367,0.246582 0.2026367,0.6176758 0,0.4882812 -0.3320312,0.7543945 Q 4.2763172,5.399714 3.6635243,5.399714 l -1.3085938,0 0,-3.6450195 z"
       style=""
       id="path4151" />
    <path
       d="m 8.4242665,2.0354562 0,0.5200195 Q 8.175243,2.3235421 7.8920399,2.208796 7.6112782,2.0940499 7.2938954,2.0940499 q -0.625,0 -0.9570313,0.3833008 -0.3320312,0.3808594 -0.3320312,1.1035156 0,0.7202149 0.3320312,1.1035157 0.3320313,0.3808593 0.9570313,0.3808593 0.3173828,0 0.5981445,-0.1147461 Q 8.175243,4.8357491 8.4242665,4.6038156 l 0,0.5151367 q -0.2587891,0.1757812 -0.5493164,0.2636718 -0.288086,0.087891 -0.6103516,0.087891 -0.8276367,0 -1.3037109,-0.5053711 -0.4760743,-0.5078125 -0.4760743,-1.3842774 0,-0.8789062 0.4760743,-1.3842773 0.4760742,-0.5078125 1.3037109,-0.5078125 0.3271484,0 0.6152344,0.087891 0.2905273,0.085449 0.5444336,0.2587891 z"
       style=""
       id="path4153" />
    <path
       d="m 2.4037586,6.7546945 1.9360352,0 0,0.415039 -1.484375,0 0,0.8935547 q 0.1074219,-0.036621 0.2148438,-0.053711 0.1074218,-0.019531 0.2148437,-0.019531 0.6103516,0 0.9667969,0.3344727 0.3564453,0.3344726 0.3564453,0.9057617 0,0.5883789 -0.3662109,0.9155276 -0.366211,0.324707 -1.0327149,0.324707 -0.2294922,0 -0.46875,-0.03906 -0.2368164,-0.03906 -0.4907226,-0.117187 l 0,-0.4956057 q 0.2197265,0.1196289 0.4541015,0.1782227 0.234375,0.058594 0.4956055,0.058594 0.4223633,0 0.6689453,-0.2221683 0.246582,-0.2221679 0.246582,-0.6030273 0,-0.3808594 -0.246582,-0.6030273 -0.246582,-0.222168 -0.6689453,-0.222168 -0.1977539,0 -0.3955078,0.043945 -0.1953125,0.043945 -0.4003907,0.1367187 l 0,-1.8310546 z"
       style=""
       id="path4155" />
    <path
       d="m 6.9374501,7.184382 -1.2451172,1.9458007 1.2451172,0 0,-1.9458007 z m -0.1293946,-0.4296875 0.6201172,0 0,2.3754882 0.5200195,0 0,0.4101563 -0.5200195,0 0,0.859375 -0.4907226,0 0,-0.859375 -1.6455079,0 0,-0.4760742 1.5161133,-2.3095703 z"
       style=""
       id="path4157" />
    <path
       d="m 8.6415516,6.7546945 2.3437504,0 0,0.2099609 -1.3232426,3.4350586 -0.5151367,0 1.2451173,-3.2299805 -1.7504884,0 0,-0.415039 z"
       style=""
       id="path4159" />
    <path
       d="m 14.635204,7.0354562 0,0.5200195 Q 14.386181,7.3235421 14.102977,7.208796 13.822216,7.0940499 13.504833,7.0940499 q -0.625,0 -0.957031,0.3833008 -0.332032,0.3808594 -0.332032,1.1035156 0,0.7202149 0.332032,1.1035157 0.332031,0.380859 0.957031,0.380859 0.317383,0 0.598144,-0.1147458 0.283204,-0.1147461 0.532227,-0.3466796 l 0,0.5151364 q -0.258789,0.175782 -0.549316,0.263672 -0.288086,0.08789 -0.610352,0.08789 -0.827637,0 -1.303711,-0.5053713 -0.476074,-0.5078125 -0.476074,-1.3842774 0,-0.8789062 0.476074,-1.3842773 0.476074,-0.5078125 1.303711,-0.5078125 0.327148,0 0.615234,0.087891 0.290528,0.085449 0.544434,0.2587891 z"
       style=""
       id="path4161" />
  </g>
</svg>
