<?xml version="1.0" encoding="UTF-8" standalone="no"?>
<!-- Created with Inkscape (http://www.inkscape.org/) -->

<svg
   xmlns:dc="http://purl.org/dc/elements/1.1/"
   xmlns:cc="http://creativecommons.org/ns#"
   xmlns:rdf="http://www.w3.org/1999/02/22-rdf-syntax-ns#"
   xmlns:svg="http://www.w3.org/2000/svg"
   xmlns="http://www.w3.org/2000/svg"
   xmlns:xlink="http://www.w3.org/1999/xlink"
   xmlns:sodipodi="http://sodipodi.sourceforge.net/DTD/sodipodi-0.dtd"
   xmlns:inkscape="http://www.inkscape.org/namespaces/inkscape"
   id="svg4190"
   version="1.1"
   inkscape:version="0.91 r"
   width="45.5mm"
   height="26.199997mm"
   viewBox="0 0 161.22047 92.834636"
   sodipodi:docname="hc-sr04.svg">
  <metadata
     id="metadata4196">
    <rdf:RDF>
      <cc:Work
         rdf:about="">
        <dc:format>image/svg+xml</dc:format>
        <dc:type
           rdf:resource="http://purl.org/dc/dcmitype/StillImage" />
        <dc:title></dc:title>
      </cc:Work>
    </rdf:RDF>
  </metadata>
  <defs
     id="defs4194">
    <pattern
       inkscape:collect="always"
       xlink:href="#pattern6139"
       id="pattern6147"
       patternTransform="translate(48.728268,106.37553)" />
    <linearGradient
       inkscape:collect="always"
       id="linearGradient6045">
      <stop
         style="stop-color:#c9c9c2;stop-opacity:1"
         offset="0"
         id="stop6047" />
      <stop
         style="stop-color:#666f78;stop-opacity:1"
         offset="1"
         id="stop6049" />
    </linearGradient>
    <radialGradient
       inkscape:collect="always"
       xlink:href="#linearGradient6045"
       id="radialGradient6051"
       cx="67.092522"
       cy="394.01968"
       fx="67.092522"
       fy="394.01968"
       r="2.25"
       gradientUnits="userSpaceOnUse"
       gradientTransform="translate(0,-326.11221)" />
    <radialGradient
       inkscape:collect="always"
       xlink:href="#linearGradient6045"
       id="radialGradient6059"
       cx="76.092522"
       cy="394.01968"
       fx="76.092522"
       fy="394.01968"
       r="2.25"
       gradientUnits="userSpaceOnUse"
       gradientTransform="translate(0,-326.11221)" />
    <radialGradient
       inkscape:collect="always"
       xlink:href="#linearGradient6045"
       id="radialGradient6067"
       cx="85.092522"
       cy="394.01968"
       fx="85.092522"
       fy="394.01968"
       r="2.25"
       gradientUnits="userSpaceOnUse"
       gradientTransform="translate(0,-326.11221)" />
    <radialGradient
       inkscape:collect="always"
       xlink:href="#linearGradient6045"
       id="radialGradient6075"
       cx="94.092522"
       cy="394.01968"
       fx="94.092522"
       fy="394.01968"
       r="2.25"
       gradientUnits="userSpaceOnUse"
       gradientTransform="translate(0,-326.11221)" />
    <pattern
       patternUnits="userSpaceOnUse"
       width="7.0866141"
       height="7.0866752"
       patternTransform="translate(-7.0866141,398.74994)"
       id="pattern6139">
      <rect
         y="0"
         x="0"
         height="7.0866141"
         width="1.0629921"
         id="rect6088"
         style="opacity:1;fill:#2a2929;fill-opacity:1;fill-rule:nonzero;stroke:none;stroke-width:0.40000001;stroke-linecap:butt;stroke-linejoin:miter;stroke-miterlimit:4;stroke-dasharray:none;stroke-opacity:1" />
      <rect
         y="6.1035156e-05"
         x="3.5433071"
         height="7.0866141"
         width="1.0629921"
         id="rect6088-5"
         style="opacity:1;fill:#2a2929;fill-opacity:1;fill-rule:nonzero;stroke:none;stroke-width:0.40000001;stroke-linecap:butt;stroke-linejoin:miter;stroke-miterlimit:4;stroke-dasharray:none;stroke-opacity:1" />
      <rect
         y="6.1035156e-05"
         x="0"
         height="1.0629921"
         width="7.0866141"
         id="rect6123"
         style="opacity:1;fill:#2a2929;fill-opacity:1;fill-rule:nonzero;stroke:none;stroke-width:0.40000001;stroke-linecap:butt;stroke-linejoin:miter;stroke-miterlimit:4;stroke-dasharray:none;stroke-opacity:1" />
      <rect
         y="3.5433655"
         x="0"
         height="1.0629921"
         width="7.0866141"
         id="rect6125"
         style="opacity:1;fill:#2a2929;fill-opacity:1;fill-rule:nonzero;stroke:none;stroke-width:0.40000001;stroke-linecap:butt;stroke-linejoin:miter;stroke-miterlimit:4;stroke-dasharray:none;stroke-opacity:1" />
    </pattern>
    <pattern
       inkscape:collect="always"
       xlink:href="#pattern6139-8"
       id="pattern6147-3"
       patternTransform="translate(148.05787,12.421374)" />
    <pattern
       patternUnits="userSpaceOnUse"
       width="7.0866141"
       height="7.0866752"
       patternTransform="translate(-7.0866141,398.74994)"
       id="pattern6139-8">
      <rect
         y="0"
         x="0"
         height="7.0866141"
         width="1.0629921"
         id="rect6088-7"
         style="opacity:1;fill:#2a2929;fill-opacity:1;fill-rule:nonzero;stroke:none;stroke-width:0.40000001;stroke-linecap:butt;stroke-linejoin:miter;stroke-miterlimit:4;stroke-dasharray:none;stroke-opacity:1" />
      <rect
         y="6.1035156e-05"
         x="3.5433071"
         height="7.0866141"
         width="1.0629921"
         id="rect6088-5-9"
         style="opacity:1;fill:#2a2929;fill-opacity:1;fill-rule:nonzero;stroke:none;stroke-width:0.40000001;stroke-linecap:butt;stroke-linejoin:miter;stroke-miterlimit:4;stroke-dasharray:none;stroke-opacity:1" />
      <rect
         y="6.1035156e-05"
         x="0"
         height="1.0629921"
         width="7.0866141"
         id="rect6123-8"
         style="opacity:1;fill:#2a2929;fill-opacity:1;fill-rule:nonzero;stroke:none;stroke-width:0.40000001;stroke-linecap:butt;stroke-linejoin:miter;stroke-miterlimit:4;stroke-dasharray:none;stroke-opacity:1" />
      <rect
         y="3.5433655"
         x="0"
         height="1.0629921"
         width="7.0866141"
         id="rect6125-8"
         style="opacity:1;fill:#2a2929;fill-opacity:1;fill-rule:nonzero;stroke:none;stroke-width:0.40000001;stroke-linecap:butt;stroke-linejoin:miter;stroke-miterlimit:4;stroke-dasharray:none;stroke-opacity:1" />
    </pattern>
  </defs>
  <sodipodi:namedview
     pagecolor="#ffffff"
     bordercolor="#666666"
     borderopacity="1"
     objecttolerance="10"
     gridtolerance="10"
     guidetolerance="10"
     inkscape:pageopacity="0"
     inkscape:pageshadow="2"
     inkscape:window-width="1920"
     inkscape:window-height="1028"
     id="namedview4192"
     showgrid="false"
     inkscape:document-units="mm"
     units="mm"
     fit-margin-top="0"
     fit-margin-left="0"
     fit-margin-right="0"
     fit-margin-bottom="0"
     inkscape:zoom="5.9523809"
     inkscape:cx="53.105998"
     inkscape:cy="41.212859"
     inkscape:window-x="0"
     inkscape:window-y="25"
     inkscape:window-maximized="1"
     inkscape:current-layer="svg4190" />
  <rect
     style="opacity:1;fill:#22618f;fill-opacity:1;fill-rule:nonzero;stroke:none;stroke-width:0.40000001;stroke-linecap:butt;stroke-linejoin:miter;stroke-miterlimit:4;stroke-dasharray:none;stroke-opacity:1"
     id="rect4200"
     width="161.22047"
     height="72.637794"
     x="0"
     y="0" />
  <circle
     style="opacity:1;fill:#cedbd6;fill-opacity:1;fill-rule:nonzero;stroke:none;stroke-width:0.40000001;stroke-linecap:butt;stroke-linejoin:miter;stroke-miterlimit:4;stroke-dasharray:none;stroke-opacity:1"
     id="path4232-0"
     cx="34.015747"
     cy="36.141724"
     r="29.409449" />
  <g
     style="font-style:normal;font-variant:normal;font-weight:normal;font-stretch:normal;font-size:8.75px;line-height:100%;font-family:Sans;-inkscape-font-specification:'Sans, Normal';text-align:start;letter-spacing:0px;word-spacing:0px;writing-mode:lr-tb;text-anchor:start;fill:#cedbd6;fill-opacity:1;stroke:none;stroke-width:1px;stroke-linecap:butt;stroke-linejoin:miter;stroke-opacity:1"
     id="text4202"
     transform="translate(0,-326.11221)">
    <path
       d="m 62.028252,345.69458 0.863037,0 0,2.61475 3.135986,0 0,-2.61475 0.863037,0 0,6.37878 -0.863037,0 0,-3.03772 -3.135986,0 0,3.03772 -0.863037,0 0,-6.37878 z"
       id="path4250"
       inkscape:connector-curvature="0" />
    <path
       d="m 73.384453,346.18591 0,0.91004 q -0.435791,-0.40589 -0.931397,-0.60669 -0.491333,-0.20081 -1.046753,-0.20081 -1.09375,0 -1.674804,0.67078 -0.581055,0.6665 -0.581055,1.93115 0,1.26038 0.581055,1.93115 0.581054,0.66651 1.674804,0.66651 0.55542,0 1.046753,-0.20081 0.495606,-0.2008 0.931397,-0.60669 l 0,0.90149 q -0.452881,0.30762 -0.961304,0.46143 -0.50415,0.15381 -1.068115,0.15381 -1.448364,0 -2.281494,-0.8844 -0.83313,-0.88868 -0.83313,-2.42249 0,-1.53809 0.83313,-2.42248 0.83313,-0.88868 2.281494,-0.88868 0.57251,0 1.07666,0.15381 0.508423,0.14954 0.952759,0.45288 z"
       id="path4252"
       inkscape:connector-curvature="0" />
    <path
       d="m 74.294487,349.32617 2.302856,0 0,0.70069 -2.302856,0 0,-0.70069 z"
       id="path4254"
       inkscape:connector-curvature="0" />
    <path
       d="m 81.711479,345.90393 0,0.84168 q -0.491333,-0.23499 -0.927124,-0.35035 -0.435791,-0.11535 -0.841675,-0.11535 -0.704956,0 -1.089477,0.27343 -0.380249,0.27344 -0.380249,0.77759 0,0.42298 0.252075,0.64087 0.256348,0.21362 0.965576,0.34607 l 0.52124,0.10681 q 0.965577,0.18372 1.42273,0.64942 0.461426,0.46142 0.461426,1.23901 0,0.92712 -0.62378,1.40564 -0.619506,0.47852 -1.820068,0.47852 -0.452881,0 -0.965576,-0.10254 -0.508423,-0.10254 -1.055298,-0.30335 l 0,-0.88867 q 0.525513,0.2948 1.029663,0.44434 0.50415,0.14953 0.991211,0.14953 0.739136,0 1.140747,-0.29053 0.401611,-0.29052 0.401611,-0.82885 0,-0.46997 -0.290527,-0.73487 -0.286255,-0.26489 -0.944214,-0.39733 l -0.525512,-0.10254 q -0.965577,-0.19226 -1.397095,-0.60242 -0.431519,-0.41016 -0.431519,-1.14075 0,-0.84595 0.593872,-1.33301 0.598145,-0.48706 1.644898,-0.48706 0.448608,0 0.914306,0.0812 0.465699,0.0812 0.952759,0.24353 z"
       id="path4256"
       inkscape:connector-curvature="0" />
    <path
       d="m 86.466728,349.08264 q 0.27771,0.094 0.53833,0.40161 0.264893,0.30762 0.529785,0.84595 l 0.875855,1.74316 -0.927124,0 -0.81604,-1.63635 q -0.316162,-0.64087 -0.615235,-0.85022 -0.294799,-0.20935 -0.807495,-0.20935 l -0.939941,0 0,2.69592 -0.863037,0 0,-6.37878 1.948242,0 q 1.09375,0 1.63208,0.45715 0.53833,0.45716 0.53833,1.38001 0,0.60242 -0.281982,0.99975 -0.27771,0.39734 -0.811768,0.55115 z m -2.161865,-2.67883 0,2.2644 1.085205,0 q 0.623779,0 0.939941,-0.28625 0.320435,-0.29053 0.320435,-0.85022 0,-0.55969 -0.320435,-0.84168 -0.316162,-0.28625 -0.939941,-0.28625 l -1.085205,0 z"
       id="path4258"
       inkscape:connector-curvature="0" />
    <path
       d="m 91.448418,346.26282 q -0.666504,0 -1.004029,0.65796 -0.333252,0.65368 -0.333252,1.9696 0,1.31165 0.333252,1.96961 0.337525,0.65368 1.004029,0.65368 0.670776,0 1.004028,-0.65368 0.337524,-0.65796 0.337524,-1.96961 0,-1.31592 -0.337524,-1.9696 -0.333252,-0.65796 -1.004028,-0.65796 z m 0,-0.6836 q 1.072387,0 1.636352,0.85022 0.568238,0.84595 0.568238,2.46094 0,1.61072 -0.568238,2.46094 -0.563965,0.84595 -1.636352,0.84595 -1.072388,0 -1.640625,-0.84595 -0.563965,-0.85022 -0.563965,-2.46094 0,-1.61499 0.563965,-2.46094 0.568237,-0.85022 1.640625,-0.85022 z"
       id="path4260"
       inkscape:connector-curvature="0" />
    <path
       d="m 97.545219,346.44653 -2.178955,3.40515 2.178955,0 0,-3.40515 z m -0.22644,-0.75195 1.085205,0 0,4.1571 0.910034,0 0,0.71778 -0.910034,0 0,1.5039 -0.858765,0 0,-1.5039 -2.879638,0 0,-0.83313 2.653198,-4.04175 z"
       id="path4262"
       inkscape:connector-curvature="0" />
  </g>
  <g
     transform="matrix(0,-1,1,0,0,-326.11221)"
     style="font-style:normal;font-variant:normal;font-weight:normal;font-stretch:normal;font-size:7.5px;line-height:100%;font-family:'Liberation Mono';-inkscape-font-specification:'Liberation Mono, Normal';text-align:start;letter-spacing:0px;word-spacing:0px;writing-mode:lr-tb;text-anchor:start;fill:#cedbd6;fill-opacity:1;stroke:none;stroke-width:1px;stroke-linecap:butt;stroke-linejoin:miter;stroke-opacity:1"
     id="text4206">
    <path
       d="m -388.02509,69.782707 -0.72509,0 -1.84937,-4.940185 0.73609,0 1.17187,3.303222 q 0.0586,0.164795 0.10986,0.344239 0.0549,0.175781 0.0989,0.329589 0.0513,0.175782 0.0989,0.347901 0.0439,-0.164795 0.0952,-0.340576 0.044,-0.150147 0.0989,-0.32959 0.0549,-0.179444 0.11353,-0.351563 l 1.16455,-3.303222 0.73608,0 -1.84937,4.940185 z"
       id="path4367"
       inkscape:connector-curvature="0" />
    <path
       d="m -385.66302,67.797844 q 0,-0.596924 0.15747,-0.992432 0.15747,-0.395508 0.41381,-0.629883 0.26001,-0.234375 0.5896,-0.329589 0.32959,-0.09888 0.67749,-0.09888 0.35889,0 0.64087,0.09155 0.28199,0.09155 0.4834,0.252686 0.20508,0.157471 0.33325,0.373535 0.12818,0.216065 0.17578,0.465088 l -0.70312,0.05127 q -0.0586,-0.333252 -0.29297,-0.523682 -0.23437,-0.194092 -0.6665,-0.194092 -0.31494,0 -0.53101,0.102539 -0.2124,0.09888 -0.34424,0.292969 -0.12817,0.19043 -0.18676,0.476074 -0.0549,0.281983 -0.0549,0.648193 0,0.366211 0.0549,0.65918 0.0586,0.289307 0.18676,0.490723 0.13184,0.201416 0.34424,0.307617 0.21607,0.106201 0.52735,0.106201 0.3955,0 0.65551,-0.194092 0.26001,-0.194091 0.32227,-0.593261 l 0.6958,0.04395 q -0.033,0.245361 -0.15747,0.472412 -0.12451,0.227051 -0.33325,0.39917 -0.20874,0.172119 -0.49805,0.27832 -0.28931,0.102539 -0.65552,0.102539 -0.50171,0 -0.85327,-0.15747 -0.3479,-0.157471 -0.56763,-0.432129 -0.21606,-0.278321 -0.31494,-0.651856 -0.0989,-0.377197 -0.0989,-0.81665 z"
       id="path4369"
       inkscape:connector-curvature="0" />
    <path
       d="m -381.16595,67.797844 q 0,-0.596924 0.15747,-0.992432 0.15747,-0.395508 0.41381,-0.629883 0.26001,-0.234375 0.5896,-0.329589 0.32959,-0.09888 0.67749,-0.09888 0.35889,0 0.64087,0.09155 0.28199,0.09155 0.4834,0.252686 0.20508,0.157471 0.33325,0.373535 0.12818,0.216065 0.17579,0.465088 l -0.70313,0.05127 q -0.0586,-0.333252 -0.29297,-0.523682 -0.23437,-0.194092 -0.6665,-0.194092 -0.31494,0 -0.53101,0.102539 -0.2124,0.09888 -0.34424,0.292969 -0.12817,0.19043 -0.18676,0.476074 -0.0549,0.281983 -0.0549,0.648193 0,0.366211 0.0549,0.65918 0.0586,0.289307 0.18676,0.490723 0.13184,0.201416 0.34424,0.307617 0.21607,0.106201 0.52735,0.106201 0.3955,0 0.65551,-0.194092 0.26001,-0.194091 0.32227,-0.593261 l 0.6958,0.04395 q -0.033,0.245361 -0.15747,0.472412 -0.12451,0.227051 -0.33325,0.39917 -0.20874,0.172119 -0.49805,0.27832 -0.28931,0.102539 -0.65552,0.102539 -0.50171,0 -0.85327,-0.15747 -0.3479,-0.157471 -0.56763,-0.432129 -0.21606,-0.278321 -0.31494,-0.651856 -0.0989,-0.377197 -0.0989,-0.81665 z"
       id="path4371"
       inkscape:connector-curvature="0" />
  </g>
  <g
     transform="matrix(0,-1,1,0,0,-326.11221)"
     style="font-style:normal;font-variant:normal;font-weight:normal;font-stretch:normal;font-size:7.5px;line-height:100%;font-family:'Liberation Mono';-inkscape-font-specification:'Liberation Mono, Normal';text-align:start;letter-spacing:0px;word-spacing:0px;writing-mode:lr-tb;text-anchor:start;fill:#cedbd6;fill-opacity:1;stroke:none;stroke-width:1px;stroke-linecap:butt;stroke-linejoin:miter;stroke-opacity:1"
     id="text4210">
    <path
       d="m -388.28229,74.412132 0,4.368897 -0.6958,0 0,-4.368897 -1.62231,0 0,-0.571289 3.94043,0 0,0.571289 -1.62232,0 z"
       id="path4374"
       inkscape:connector-curvature="0" />
    <path
       d="m -382.55475,75.419212 q -0.17212,-0.0293 -0.36255,-0.04761 -0.18676,-0.02197 -0.41382,-0.02197 -0.30761,0 -0.55297,0.124512 -0.24537,0.124512 -0.41382,0.340576 -0.16846,0.212402 -0.26001,0.498047 -0.0879,0.285645 -0.0879,0.60791 l 0,1.860352 -0.65918,0 0,-2.567139 q 0,-0.205078 -0.022,-0.41748 -0.022,-0.212403 -0.0513,-0.39917 -0.0293,-0.19043 -0.0623,-0.340576 -0.033,-0.150147 -0.0549,-0.238038 l 0.62622,0 q 0.0256,0.08789 0.0513,0.201416 0.0293,0.113526 0.0549,0.238038 0.0256,0.120849 0.0439,0.245361 0.0183,0.124512 0.0256,0.230713 l 0.0183,0 q 0.10254,-0.227051 0.21606,-0.410157 0.11353,-0.183105 0.26734,-0.311279 0.15747,-0.128174 0.36987,-0.197754 0.2124,-0.06958 0.5127,-0.06958 0.20508,0 0.40283,0.01831 0.19775,0.01831 0.35156,0.04395 l 0,0.611572 z"
       id="path4376"
       inkscape:connector-curvature="0" />
    <path
       d="m -379.15631,78.261009 1.3916,0 0,0.52002 -3.59619,0 0,-0.52002 1.54541,0 0,-2.922363 -1.16821,0 0,-0.52002 1.82739,0 0,3.442383 z m -0.73242,-4.211426 0,-0.703125 0.73242,0 0,0.703125 -0.73242,0 z"
       id="path4378"
       inkscape:connector-curvature="0" />
    <path
       d="m -375.13531,80.333763 q -0.32959,0 -0.58228,-0.06958 -0.24902,-0.06958 -0.43213,-0.201416 -0.17944,-0.128174 -0.29297,-0.307617 -0.10986,-0.179444 -0.15747,-0.39917 l 0.67383,-0.09155 q 0.0623,0.274658 0.26733,0.421143 0.20874,0.150146 0.54566,0.150146 0.20874,0 0.37353,-0.06226 0.16846,-0.06225 0.28565,-0.201416 0.12085,-0.135498 0.1831,-0.355224 0.0659,-0.219727 0.0659,-0.534668 l 0,-0.710449 -0.007,0 q -0.0696,0.146484 -0.17945,0.285644 -0.1062,0.13916 -0.26001,0.245361 -0.15014,0.106202 -0.35156,0.17212 -0.20142,0.06225 -0.46509,0.06225 -0.37353,0 -0.6372,-0.120849 -0.26368,-0.12085 -0.43213,-0.366211 -0.16846,-0.245361 -0.24903,-0.615234 -0.0769,-0.369874 -0.0769,-0.864258 0,-0.479737 0.0769,-0.853272 0.0806,-0.373535 0.25269,-0.629883 0.17578,-0.260009 0.4541,-0.395507 0.27832,-0.135498 0.68115,-0.135498 0.41382,0 0.71778,0.194091 0.30761,0.19043 0.47241,0.545655 l 0.011,0 q 0,-0.09155 0.004,-0.205078 0.007,-0.113526 0.011,-0.212403 0.007,-0.102539 0.0147,-0.175781 0.011,-0.07324 0.0147,-0.08423 l 0.62622,0 q -0.004,0.03296 -0.007,0.113526 -0.004,0.0769 -0.007,0.186767 -0.004,0.109864 -0.007,0.245362 0,0.131836 0,0.274658 l 0,3.024902 q 0,0.831299 -0.38819,1.24878 -0.38818,0.421142 -1.1975,0.421142 z m 0.93017,-3.570557 q 0,-0.413818 -0.0879,-0.703125 -0.0879,-0.289306 -0.23437,-0.46875 -0.14283,-0.183105 -0.32959,-0.263671 -0.18311,-0.08057 -0.3772,-0.08057 -0.24536,0 -0.42481,0.08423 -0.17944,0.08057 -0.29663,0.263672 -0.11718,0.179443 -0.17212,0.46875 -0.0549,0.285644 -0.0549,0.699462 0,0.428467 0.0549,0.714112 0.0549,0.285644 0.16846,0.457763 0.11719,0.17212 0.29297,0.245362 0.17944,0.06958 0.42114,0.06958 0.19409,0 0.38086,-0.0769 0.18677,-0.08057 0.33325,-0.256348 0.14649,-0.175781 0.23438,-0.457764 0.0916,-0.285644 0.0916,-0.695801 z"
       id="path4380"
       inkscape:connector-curvature="0" />
  </g>
  <g
     transform="matrix(0,-1,1,0,0,-326.11221)"
     style="font-style:normal;font-variant:normal;font-weight:normal;font-stretch:normal;font-size:7.5px;line-height:100%;font-family:'Liberation Mono';-inkscape-font-specification:'Liberation Mono, Normal';text-align:start;letter-spacing:0px;word-spacing:0px;writing-mode:lr-tb;text-anchor:start;fill:#cedbd6;fill-opacity:1;stroke:none;stroke-width:1px;stroke-linecap:butt;stroke-linejoin:miter;stroke-opacity:1"
     id="text4214">
    <path
       d="m -390.6004,87.639297 0,-4.940185 3.36548,0 0,0.571289 -2.66602,0 0,1.54541 2.44629,0 0,0.563965 -2.44629,0 0,1.688232 2.81616,0 0,0.571289 -3.51562,0 z"
       id="path4383"
       inkscape:connector-curvature="0" />
    <path
       d="m -386.22052,85.654434 q 0,-0.596924 0.15747,-0.992431 0.15747,-0.395508 0.41382,-0.629883 0.26001,-0.234375 0.5896,-0.32959 0.32959,-0.09888 0.67749,-0.09888 0.35889,0 0.64087,0.09155 0.28198,0.09155 0.4834,0.252685 0.20507,0.157471 0.33325,0.373535 0.12817,0.216065 0.17578,0.465088 l -0.70313,0.05127 q -0.0586,-0.333252 -0.29296,-0.523682 -0.23438,-0.194092 -0.66651,-0.194092 -0.31494,0 -0.531,0.102539 -0.21241,0.09888 -0.34424,0.292969 -0.12818,0.19043 -0.18677,0.476074 -0.0549,0.281983 -0.0549,0.648194 0,0.366211 0.0549,0.659179 0.0586,0.289307 0.18677,0.490723 0.13183,0.201416 0.34424,0.307617 0.21606,0.106201 0.52734,0.106201 0.39551,0 0.65552,-0.194091 0.26001,-0.194092 0.32226,-0.593262 l 0.6958,0.04395 q -0.033,0.245362 -0.15747,0.472412 -0.12451,0.227051 -0.33325,0.39917 -0.20874,0.172119 -0.49805,0.278321 -0.2893,0.102539 -0.65551,0.102539 -0.50171,0 -0.85327,-0.157471 -0.34791,-0.157471 -0.56763,-0.432129 -0.21607,-0.27832 -0.31494,-0.651855 -0.0989,-0.377198 -0.0989,-0.816651 z"
       id="path4385"
       inkscape:connector-curvature="0" />
    <path
       d="m -381.52203,82.204727 0.66284,0 0,1.428223 q 0,0.183105 -0.011,0.369873 -0.011,0.183105 -0.022,0.351562 l 0.011,0 q 0.0879,-0.172119 0.20507,-0.311279 0.11719,-0.13916 0.26734,-0.234375 0.15014,-0.09888 0.34057,-0.150146 0.1941,-0.05493 0.42847,-0.05493 0.30396,0 0.54199,0.08057 0.23804,0.08057 0.40283,0.249024 0.1648,0.168457 0.24903,0.432129 0.0879,0.263672 0.0879,0.633545 l 0,2.64038 -0.66284,0 0,-2.545166 q 0,-0.292968 -0.0623,-0.479736 -0.0586,-0.19043 -0.16846,-0.300293 -0.1062,-0.113525 -0.25268,-0.157471 -0.14649,-0.04395 -0.32227,-0.04395 -0.21606,0 -0.40649,0.08423 -0.18677,0.08057 -0.32959,0.238037 -0.13916,0.153808 -0.21973,0.384521 -0.0806,0.227051 -0.0806,0.523682 l 0,2.296142 -0.65918,0 0,-5.43457 z"
       id="path4387"
       inkscape:connector-curvature="0" />
    <path
       d="m -373.68512,85.654434 q 0,0.52002 -0.12451,0.908203 -0.12085,0.384522 -0.35156,0.640869 -0.23072,0.256348 -0.56397,0.384522 -0.32959,0.124512 -0.74707,0.124512 -0.39917,0 -0.7251,-0.124512 -0.32226,-0.124512 -0.55298,-0.380859 -0.22705,-0.256348 -0.35156,-0.64087 -0.12451,-0.388183 -0.12451,-0.911865 0,-1.021728 0.46143,-1.534424 0.46508,-0.516357 1.31469,-0.516357 0.89356,0 1.32935,0.509033 0.43579,0.509033 0.43579,1.541748 z m -0.69214,0 q 0,-0.461426 -0.0806,-0.761719 -0.0769,-0.300293 -0.21973,-0.479736 -0.13916,-0.179443 -0.33325,-0.249023 -0.1941,-0.07324 -0.42847,-0.07324 -0.23804,0 -0.43945,0.0769 -0.20142,0.07324 -0.3479,0.256347 -0.14283,0.179444 -0.22705,0.479737 -0.0806,0.300293 -0.0806,0.750732 0,0.461426 0.0842,0.765381 0.0879,0.300293 0.23071,0.479736 0.14649,0.179444 0.33691,0.252686 0.1941,0.07324 0.40284,0.07324 0.23803,0 0.43945,-0.06958 0.20508,-0.07324 0.35156,-0.252685 0.14649,-0.179444 0.22705,-0.483399 0.0842,-0.303955 0.0842,-0.765381 z"
       id="path4389"
       inkscape:connector-curvature="0" />
  </g>
  <g
     transform="matrix(0,-1,1,0,0,-326.11221)"
     style="font-style:normal;font-variant:normal;font-weight:normal;font-stretch:normal;font-size:7.5px;line-height:100%;font-family:'Liberation Mono';-inkscape-font-specification:'Liberation Mono, Normal';text-align:start;letter-spacing:0px;word-spacing:0px;writing-mode:lr-tb;text-anchor:start;fill:#cedbd6;fill-opacity:1;stroke:none;stroke-width:1px;stroke-linecap:butt;stroke-linejoin:miter;stroke-opacity:1"
     id="text4218">
    <path
       d="m -386.98224,96.010506 q -0.13183,0.08789 -0.30762,0.186767 -0.17212,0.09888 -0.38452,0.183106 -0.2124,0.08057 -0.46509,0.135498 -0.24902,0.05493 -0.53466,0.05493 -0.49073,0 -0.85327,-0.190429 -0.36255,-0.194092 -0.60059,-0.534668 -0.23804,-0.340576 -0.35523,-0.809326 -0.11718,-0.472413 -0.11718,-1.032715 0,-0.611573 0.11352,-1.080323 0.11353,-0.472412 0.35157,-0.791015 0.23803,-0.322266 0.60424,-0.487061 0.36621,-0.164795 0.86792,-0.164795 0.36621,0 0.64087,0.09522 0.27832,0.09521 0.47974,0.26001 0.20508,0.161133 0.34057,0.384521 0.13916,0.219727 0.22706,0.472413 l -0.62623,0.205078 q -0.13916,-0.402832 -0.3955,-0.622559 -0.25269,-0.223389 -0.65918,-0.223389 -0.32959,0 -0.56031,0.128174 -0.23071,0.124512 -0.37719,0.373535 -0.14283,0.245362 -0.20874,0.611573 -0.0623,0.362549 -0.0623,0.838623 0,0.981445 0.30762,1.490478 0.31128,0.509033 0.94116,0.509033 0.17578,0 0.32593,-0.0293 0.15381,-0.03296 0.27466,-0.07324 0.12451,-0.04395 0.2124,-0.08789 0.0915,-0.04761 0.13916,-0.08057 l 0,-1.230468 -1.073,0 0,-0.585938 1.75415,0 0,2.094727 z"
       id="path4392"
       inkscape:connector-curvature="0" />
    <path
       d="m -383.33844,96.497566 0,-2.545166 q 0,-0.292969 -0.0623,-0.479736 -0.0586,-0.19043 -0.16845,-0.300293 -0.1062,-0.113525 -0.25269,-0.157471 -0.14648,-0.04394 -0.32226,-0.04394 -0.21607,0 -0.4065,0.08423 -0.18677,0.08057 -0.32959,0.238038 -0.13916,0.153808 -0.21972,0.384521 -0.0806,0.227051 -0.0806,0.523682 l 0,2.296142 -0.65918,0 0,-3.116455 q 0,-0.124512 -0.004,-0.26001 0,-0.13916 -0.004,-0.260009 -0.004,-0.124512 -0.007,-0.212403 -0.004,-0.08789 -0.007,-0.113525 l 0.62256,0 q 0.004,0.01831 0.007,0.09888 0.004,0.08057 0.007,0.186767 0.007,0.102539 0.011,0.212403 0.004,0.106201 0.004,0.179443 l 0.011,0 q 0.0879,-0.172119 0.20508,-0.311279 0.12085,-0.13916 0.27465,-0.234375 0.15748,-0.09888 0.35157,-0.150147 0.19409,-0.05493 0.43579,-0.05493 0.30395,0 0.53833,0.08057 0.23437,0.08057 0.39184,0.249024 0.16114,0.168457 0.2417,0.432128 0.0842,0.263672 0.0842,0.633545 l 0,2.640381 -0.66284,0 z"
       id="path4394"
       inkscape:connector-curvature="0" />
    <path
       d="m -378.86334,95.860359 q -0.17945,0.384522 -0.47608,0.560303 -0.29663,0.172119 -0.73974,0.172119 -0.73975,0 -1.08765,-0.509033 -0.3479,-0.509033 -0.3479,-1.534424 0,-2.072754 1.43555,-2.072754 0.44311,0 0.73974,0.157471 0.3003,0.157471 0.47974,0.516357 l 0.007,0 q 0,-0.01831 -0.004,-0.09521 0,-0.0769 0,-0.168457 0,-0.09155 -0.004,-0.172119 0,-0.08423 0,-0.117187 l 0,-1.534424 0.65918,0 0,4.61792 q 0,0.142822 0,0.274658 0.004,0.131836 0.007,0.241699 0.004,0.109864 0.007,0.19043 0.004,0.0769 0.007,0.109863 l -0.62988,0 q -0.004,-0.01465 -0.011,-0.08057 -0.007,-0.06592 -0.0147,-0.157471 -0.004,-0.09155 -0.007,-0.197754 -0.004,-0.106201 -0.004,-0.201416 l -0.0183,0 z m -1.97022,-1.333008 q 0,0.410157 0.0513,0.703125 0.0549,0.292969 0.1648,0.483399 0.11352,0.19043 0.2893,0.281982 0.17579,0.08789 0.42115,0.08789 0.25268,0 0.44677,-0.08789 0.19776,-0.08789 0.32959,-0.27832 0.1355,-0.194092 0.20142,-0.501709 0.0696,-0.307617 0.0696,-0.74707 0,-0.424805 -0.0696,-0.71045 -0.0659,-0.289306 -0.19775,-0.465087 -0.13184,-0.175782 -0.32593,-0.252686 -0.19409,-0.0769 -0.44678,-0.0769 -0.23437,0 -0.41016,0.08423 -0.17578,0.08423 -0.29296,0.270996 -0.11353,0.186768 -0.17212,0.487061 -0.0586,0.296631 -0.0586,0.721435 z"
       id="path4396"
       inkscape:connector-curvature="0" />
  </g>
  <g
     style="font-style:normal;font-variant:normal;font-weight:normal;font-stretch:normal;font-size:11.25px;line-height:100%;font-family:Sans;-inkscape-font-specification:'Sans, Normal';text-align:start;letter-spacing:0px;word-spacing:0px;writing-mode:lr-tb;text-anchor:start;fill:#cedbd6;fill-opacity:1;stroke:none;stroke-width:1px;stroke-linecap:butt;stroke-linejoin:miter;stroke-opacity:1"
     id="text4222"
     transform="translate(0,-326.11221)">
    <path
       d="m 9.7637444,388.42273 6.9378666,0 0,0.93384 -2.911377,0 0,7.26745 -1.115113,0 0,-7.26745 -2.9113766,0 0,-0.93384 z"
       id="path4326"
       inkscape:connector-curvature="0" />
  </g>
  <g
     style="font-style:normal;font-variant:normal;font-weight:normal;font-stretch:normal;font-size:11.25px;line-height:100%;font-family:Sans;-inkscape-font-specification:'Sans, Normal';text-align:start;letter-spacing:0px;word-spacing:0px;writing-mode:lr-tb;text-anchor:start;fill:#cedbd6;fill-opacity:1;stroke:none;stroke-width:1px;stroke-linecap:butt;stroke-linejoin:miter;stroke-opacity:1"
     id="text4226"
     transform="translate(0,-326.11221)">
    <path
       d="m 147.49416,392.77881 q 0.35705,0.12085 0.69213,0.51636 0.34058,0.3955 0.68116,1.08764 l 1.1261,2.24121 -1.19202,0 -1.0492,-2.10388 q -0.40649,-0.82397 -0.79101,-1.09314 -0.37903,-0.26916 -1.03821,-0.26916 l -1.2085,0 0,3.46618 -1.10961,0 0,-8.20129 2.50488,0 q 1.40625,0 2.09839,0.58777 0.69214,0.58777 0.69214,1.77429 0,0.77454 -0.36255,1.2854 -0.35706,0.51086 -1.0437,0.70862 z m -2.77955,-3.44422 0,2.91138 1.39527,0 q 0.802,0 1.20849,-0.36804 0.41199,-0.37354 0.41199,-1.09314 0,-0.7196 -0.41199,-1.08215 -0.40649,-0.36805 -1.20849,-0.36805 l -1.39527,0 z"
       id="path4323"
       inkscape:connector-curvature="0" />
  </g>
  <rect
     style="opacity:1;fill:#cedbd6;fill-opacity:1;fill-rule:nonzero;stroke:none;stroke-width:0.40000001;stroke-linecap:butt;stroke-linejoin:miter;stroke-miterlimit:4;stroke-dasharray:none;stroke-opacity:1"
     id="rect4230"
     width="37.204723"
     height="12.047244"
     x="60.944881"
     y="6.0236206" />
  <circle
     style="opacity:1;fill:#cedbd6;fill-opacity:1;fill-rule:nonzero;stroke:none;stroke-width:0.40000001;stroke-linecap:butt;stroke-linejoin:miter;stroke-miterlimit:4;stroke-dasharray:none;stroke-opacity:1"
     id="path4232"
     cx="127.20473"
     cy="36.141724"
     r="29.409449" />
  <circle
     style="opacity:1;fill:#8f9c9b;fill-opacity:1;fill-rule:nonzero;stroke:none;stroke-width:0.40000001;stroke-linecap:butt;stroke-linejoin:miter;stroke-miterlimit:4;stroke-dasharray:none;stroke-opacity:1"
     id="path4264"
     cx="5.3149605"
     cy="67.322815"
     r="3.5433071" />
  <circle
     style="opacity:1;fill:#8f9c9b;fill-opacity:1;fill-rule:nonzero;stroke:none;stroke-width:0.40000001;stroke-linecap:butt;stroke-linejoin:miter;stroke-miterlimit:4;stroke-dasharray:none;stroke-opacity:1"
     id="path4264-7"
     cx="5.3149605"
     cy="5.3149414"
     r="3.5433071" />
  <circle
     style="opacity:1;fill:#8f9c9b;fill-opacity:1;fill-rule:nonzero;stroke:none;stroke-width:0.40000001;stroke-linecap:butt;stroke-linejoin:miter;stroke-miterlimit:4;stroke-dasharray:none;stroke-opacity:1"
     id="path4264-0"
     cx="155.90552"
     cy="67.322815"
     r="3.5433071" />
  <circle
     style="opacity:1;fill:#8f9c9b;fill-opacity:1;fill-rule:nonzero;stroke:none;stroke-width:0.40000001;stroke-linecap:butt;stroke-linejoin:miter;stroke-miterlimit:4;stroke-dasharray:none;stroke-opacity:1"
     id="path4264-8"
     cx="155.90552"
     cy="5.3149414"
     r="3.5433071" />
  <circle
     style="opacity:1;fill:#ffffff;fill-opacity:1;fill-rule:nonzero;stroke:none;stroke-width:0.40000001;stroke-linecap:butt;stroke-linejoin:miter;stroke-miterlimit:4;stroke-dasharray:none;stroke-opacity:1"
     id="path4293"
     cx="5.3149605"
     cy="67.322815"
     r="2.6574802" />
  <circle
     style="opacity:1;fill:#ffffff;fill-opacity:1;fill-rule:nonzero;stroke:none;stroke-width:0.40000001;stroke-linecap:butt;stroke-linejoin:miter;stroke-miterlimit:4;stroke-dasharray:none;stroke-opacity:1"
     id="path4293-1"
     cx="5.3149605"
     cy="5.3149414"
     r="2.6574802" />
  <circle
     style="opacity:1;fill:#ffffff;fill-opacity:1;fill-rule:nonzero;stroke:none;stroke-width:0.40000001;stroke-linecap:butt;stroke-linejoin:miter;stroke-miterlimit:4;stroke-dasharray:none;stroke-opacity:1"
     id="path4293-11"
     cx="155.90552"
     cy="5.3149414"
     r="2.6574802" />
  <circle
     style="opacity:1;fill:#ffffff;fill-opacity:1;fill-rule:nonzero;stroke:none;stroke-width:0.40000001;stroke-linecap:butt;stroke-linejoin:miter;stroke-miterlimit:4;stroke-dasharray:none;stroke-opacity:1"
     id="path4293-7"
     cx="155.90552"
     cy="67.322815"
     r="2.6574802" />
  <rect
     style="opacity:1;fill:url(#radialGradient6051);fill-opacity:1;fill-rule:nonzero;stroke:none;stroke-width:0.40000001;stroke-linecap:butt;stroke-linejoin:miter;stroke-miterlimit:4;stroke-dasharray:none;stroke-opacity:1"
     id="rect4328"
     width="4.5"
     height="4.5"
     x="64.842522"
     y="65.657471"
     ry="1.1339999" />
  <rect
     style="opacity:1;fill:url(#radialGradient6059);fill-opacity:1;fill-rule:nonzero;stroke:none;stroke-width:0.40000001;stroke-linecap:butt;stroke-linejoin:miter;stroke-miterlimit:4;stroke-dasharray:none;stroke-opacity:1"
     id="rect4328-1"
     width="4.5"
     height="4.5"
     x="73.842522"
     y="65.657471"
     ry="1.1339999" />
  <rect
     style="opacity:1;fill:url(#radialGradient6067);fill-opacity:1;fill-rule:nonzero;stroke:none;stroke-width:0.40000001;stroke-linecap:butt;stroke-linejoin:miter;stroke-miterlimit:4;stroke-dasharray:none;stroke-opacity:1"
     id="rect4328-1-4"
     width="4.5"
     height="4.5"
     x="82.842522"
     y="65.657471"
     ry="1.1339999" />
  <rect
     style="opacity:1;fill:url(#radialGradient6075);fill-opacity:1;fill-rule:nonzero;stroke:none;stroke-width:0.40000001;stroke-linecap:butt;stroke-linejoin:miter;stroke-miterlimit:4;stroke-dasharray:none;stroke-opacity:1"
     id="rect4328-1-46"
     width="4.5"
     height="4.5"
     x="91.842522"
     y="65.657471"
     ry="1.1339999" />
  <rect
     style="opacity:1;fill:#9da299;fill-opacity:1;fill-rule:nonzero;stroke:none;stroke-width:0.40000001;stroke-linecap:butt;stroke-linejoin:miter;stroke-miterlimit:4;stroke-dasharray:none;stroke-opacity:1"
     id="rect4398"
     width="38.976379"
     height="16.122047"
     x="60.944881"
     y="3.0118103"
     ry="8.0610237" />
  <rect
     style="opacity:1;fill:#848175;fill-opacity:1;fill-rule:nonzero;stroke:none;stroke-width:0.40000001;stroke-linecap:butt;stroke-linejoin:miter;stroke-miterlimit:4;stroke-dasharray:none;stroke-opacity:1"
     id="rect4398-4"
     width="35.433071"
     height="12.401575"
     x="62.716534"
     y="4.8720398"
     ry="6.2007875" />
  <g
     style="font-style:normal;font-variant:normal;font-weight:normal;font-stretch:normal;font-size:7.5px;line-height:100%;font-family:Sans;-inkscape-font-specification:'Sans, Normal';text-align:start;letter-spacing:0px;word-spacing:0px;writing-mode:lr-tb;text-anchor:start;fill:#c5bea9;fill-opacity:1;stroke:none;stroke-width:1px;stroke-linecap:butt;stroke-linejoin:miter;stroke-opacity:1"
     id="text4415"
     transform="translate(0,-326.11221)">
    <path
       d="m 69.90519,334.0675 -2.490235,3.89161 2.490235,0 0,-3.89161 z m -0.25879,-0.85937 1.240235,0 0,4.75098 1.040039,0 0,0.82031 -1.040039,0 0,1.71875 -0.981445,0 0,-1.71875 -3.291016,0 0,-0.95215 3.032226,-4.61914 z"
       style="font-style:normal;font-variant:normal;font-weight:normal;font-stretch:normal;font-size:10px;line-height:100%;font-family:Sans;-inkscape-font-specification:'Sans, Normal';text-align:start;writing-mode:lr-tb;text-anchor:start"
       id="path4420"
       inkscape:connector-curvature="0" />
    <path
       d="m 78.855385,333.85754 q -0.761719,0 -1.147461,0.75196 -0.380859,0.74707 -0.380859,2.25097 0,1.49903 0.380859,2.25098 0.385742,0.74707 1.147461,0.74707 0.766601,0 1.147461,-0.74707 0.385742,-0.75195 0.385742,-2.25098 0,-1.5039 -0.385742,-2.25097 -0.38086,-0.75196 -1.147461,-0.75196 z m 0,-0.78125 q 1.225586,0 1.870117,0.97168 0.649414,0.9668 0.649414,2.8125 0,1.84082 -0.649414,2.8125 -0.644531,0.9668 -1.870117,0.9668 -1.225586,0 -1.875,-0.9668 -0.644531,-0.97168 -0.644531,-2.8125 0,-1.8457 0.644531,-2.8125 0.649414,-0.97168 1.875,-0.97168 z"
       style="font-style:normal;font-variant:normal;font-weight:normal;font-stretch:normal;font-size:10px;line-height:100%;font-family:Sans;-inkscape-font-specification:'Sans, Normal';text-align:start;writing-mode:lr-tb;text-anchor:start"
       id="path4422"
       inkscape:connector-curvature="0" />
    <path
       d="m 85.222572,333.85754 q -0.761718,0 -1.147461,0.75196 -0.380859,0.74707 -0.380859,2.25097 0,1.49903 0.380859,2.25098 0.385743,0.74707 1.147461,0.74707 0.766602,0 1.147461,-0.74707 0.385742,-0.75195 0.385742,-2.25098 0,-1.5039 -0.385742,-2.25097 -0.380859,-0.75196 -1.147461,-0.75196 z m 0,-0.78125 q 1.225586,0 1.870118,0.97168 0.649414,0.9668 0.649414,2.8125 0,1.84082 -0.649414,2.8125 -0.644532,0.9668 -1.870118,0.9668 -1.225586,0 -1.875,-0.9668 -0.644531,-0.97168 -0.644531,-2.8125 0,-1.8457 0.644531,-2.8125 0.649414,-0.97168 1.875,-0.97168 z"
       style="font-style:normal;font-variant:normal;font-weight:normal;font-stretch:normal;font-size:10px;line-height:100%;font-family:Sans;-inkscape-font-specification:'Sans, Normal';text-align:start;writing-mode:lr-tb;text-anchor:start"
       id="path4424"
       inkscape:connector-curvature="0" />
    <path
       d="m 91.58976,333.85754 q -0.761719,0 -1.147461,0.75196 -0.380859,0.74707 -0.380859,2.25097 0,1.49903 0.380859,2.25098 0.385742,0.74707 1.147461,0.74707 0.766601,0 1.147461,-0.74707 0.385742,-0.75195 0.385742,-2.25098 0,-1.5039 -0.385742,-2.25097 -0.38086,-0.75196 -1.147461,-0.75196 z m 0,-0.78125 q 1.225586,0 1.870117,0.97168 0.649414,0.9668 0.649414,2.8125 0,1.84082 -0.649414,2.8125 -0.644531,0.9668 -1.870117,0.9668 -1.225586,0 -1.875,-0.9668 -0.644531,-0.97168 -0.644531,-2.8125 0,-1.8457 0.644531,-2.8125 0.649414,-0.97168 1.875,-0.97168 z"
       style="font-style:normal;font-variant:normal;font-weight:normal;font-stretch:normal;font-size:10px;line-height:100%;font-family:Sans;-inkscape-font-specification:'Sans, Normal';text-align:start;writing-mode:lr-tb;text-anchor:start"
       id="path4426"
       inkscape:connector-curvature="0" />
  </g>
  <circle
     style="opacity:1;fill:#b6bdb0;fill-opacity:1;fill-rule:nonzero;stroke:none;stroke-width:0.40000001;stroke-linecap:butt;stroke-linejoin:miter;stroke-miterlimit:4;stroke-dasharray:none;stroke-opacity:1"
     id="path4428"
     cx="34.015747"
     cy="36.141724"
     r="28.346457" />
  <circle
     style="opacity:1;fill:#b6bdb0;fill-opacity:1;fill-rule:nonzero;stroke:none;stroke-width:0.40000001;stroke-linecap:butt;stroke-linejoin:miter;stroke-miterlimit:4;stroke-dasharray:none;stroke-opacity:1"
     id="path4428-1"
     cx="127.20473"
     cy="36.141724"
     r="28.346457" />
  <circle
     style="opacity:1;fill:#2a2929;fill-opacity:1;fill-rule:nonzero;stroke:none;stroke-width:0.40000001;stroke-linecap:butt;stroke-linejoin:miter;stroke-miterlimit:4;stroke-dasharray:none;stroke-opacity:1"
     id="path4445"
     cx="34.015747"
     cy="36.141724"
     r="23.031496" />
  <circle
     style="opacity:1;fill:#757169;fill-opacity:1;fill-rule:nonzero;stroke:none;stroke-width:0.40000001;stroke-linecap:butt;stroke-linejoin:miter;stroke-miterlimit:4;stroke-dasharray:none;stroke-opacity:1"
     id="path4462"
     cx="34.015747"
     cy="36.141724"
     r="18.248032" />
  <circle
     style="opacity:1;fill:#aeb0a6;fill-opacity:1;fill-rule:nonzero;stroke:none;stroke-width:0.40000001;stroke-linecap:butt;stroke-linejoin:miter;stroke-miterlimit:4;stroke-dasharray:none;stroke-opacity:1"
     id="path4464"
     cx="34.015747"
     cy="36.141724"
     r="11.692913" />
  <circle
     style="opacity:1;fill:url(#pattern6147);fill-opacity:1;fill-rule:nonzero;stroke:none;stroke-width:0.40000001;stroke-linecap:butt;stroke-linejoin:miter;stroke-miterlimit:4;stroke-dasharray:none;stroke-opacity:1"
     id="path4445-6"
     cx="23.085403"
     cy="43.935848"
     r="23.031496"
     transform="matrix(0.96341874,-0.2680006,0.2680006,0.96341874,0,0)" />
  <circle
     style="opacity:1;fill:#2a2929;fill-opacity:1;fill-rule:nonzero;stroke:none;stroke-width:0.40000001;stroke-linecap:butt;stroke-linejoin:miter;stroke-miterlimit:4;stroke-dasharray:none;stroke-opacity:1"
     id="path4445-2"
     cx="127.20473"
     cy="36.141724"
     r="23.031496" />
  <circle
     style="opacity:1;fill:#757169;fill-opacity:1;fill-rule:nonzero;stroke:none;stroke-width:0.40000001;stroke-linecap:butt;stroke-linejoin:miter;stroke-miterlimit:4;stroke-dasharray:none;stroke-opacity:1"
     id="path4462-0"
     cx="127.20473"
     cy="36.141724"
     r="18.248032" />
  <circle
     style="opacity:1;fill:#aeb0a6;fill-opacity:1;fill-rule:nonzero;stroke:none;stroke-width:0.40000001;stroke-linecap:butt;stroke-linejoin:miter;stroke-miterlimit:4;stroke-dasharray:none;stroke-opacity:1"
     id="path4464-4"
     cx="127.20473"
     cy="36.141724"
     r="11.692913" />
  <circle
     style="opacity:1;fill:url(#pattern6147-3);fill-opacity:1;fill-rule:nonzero;stroke:none;stroke-width:0.40000001;stroke-linecap:butt;stroke-linejoin:miter;stroke-miterlimit:4;stroke-dasharray:none;stroke-opacity:1"
     id="path4445-6-1"
     cx="122.41499"
     cy="-50.018314"
     r="23.031496"
     transform="matrix(0.78708809,0.61684062,-0.61684062,0.78708809,0,0)" />
  <rect
     style="opacity:1;fill:#d2d5da;fill-opacity:1;fill-rule:nonzero;stroke:none;stroke-width:0.40000001;stroke-linecap:butt;stroke-linejoin:miter;stroke-miterlimit:4;stroke-dasharray:none;stroke-opacity:1"
     id="rect6182"
     width="2.480315"
     height="20.19685"
     x="65.852364"
     y="72.637787" />
  <rect
     style="opacity:1;fill:#d2d5da;fill-opacity:1;fill-rule:nonzero;stroke:none;stroke-width:0.40000001;stroke-linecap:butt;stroke-linejoin:miter;stroke-miterlimit:4;stroke-dasharray:none;stroke-opacity:1"
     id="rect6182-3"
     width="2.480315"
     height="20.19685"
     x="74.852364"
     y="72.637787" />
  <rect
     style="opacity:1;fill:#d2d5da;fill-opacity:1;fill-rule:nonzero;stroke:none;stroke-width:0.40000001;stroke-linecap:butt;stroke-linejoin:miter;stroke-miterlimit:4;stroke-dasharray:none;stroke-opacity:1"
     id="rect6182-4"
     width="2.480315"
     height="20.19685"
     x="83.852364"
     y="72.637787" />
  <rect
     style="opacity:1;fill:#d2d5da;fill-opacity:1;fill-rule:nonzero;stroke:none;stroke-width:0.40000001;stroke-linecap:butt;stroke-linejoin:miter;stroke-miterlimit:4;stroke-dasharray:none;stroke-opacity:1"
     id="rect6182-44"
     width="2.480315"
     height="20.19685"
     x="92.852364"
     y="72.637787" />
</svg>
