<?xml version="1.0" encoding="UTF-8" standalone="no"?>
<!-- Created with Inkscape (http://www.inkscape.org/) -->

<svg
   xmlns:dc="http://purl.org/dc/elements/1.1/"
   xmlns:cc="http://creativecommons.org/ns#"
   xmlns:rdf="http://www.w3.org/1999/02/22-rdf-syntax-ns#"
   xmlns:svg="http://www.w3.org/2000/svg"
   xmlns="http://www.w3.org/2000/svg"
   xmlns:sodipodi="http://sodipodi.sourceforge.net/DTD/sodipodi-0.dtd"
   xmlns:inkscape="http://www.inkscape.org/namespaces/inkscape"
   id="svg4254"
   version="1.1"
   inkscape:version="0.91 r"
   width="61.599998mm"
   height="30.200008mm"
   viewBox="0 0 218.26771 107.0079"
   sodipodi:docname="servomotor.svg">
  <metadata
     id="metadata4260">
    <rdf:RDF>
      <cc:Work
         rdf:about="">
        <dc:format>image/svg+xml</dc:format>
        <dc:type
           rdf:resource="http://purl.org/dc/dcmitype/StillImage" />
        <dc:title></dc:title>
      </cc:Work>
    </rdf:RDF>
  </metadata>
  <defs
     id="defs4258" />
  <sodipodi:namedview
     pagecolor="#ffffff"
     bordercolor="#666666"
     borderopacity="1"
     objecttolerance="10"
     gridtolerance="10"
     guidetolerance="10"
     inkscape:pageopacity="0"
     inkscape:pageshadow="2"
     inkscape:window-width="1920"
     inkscape:window-height="1028"
     id="namedview4256"
     showgrid="false"
     inkscape:document-units="mm"
     units="mm"
     fit-margin-top="0"
     fit-margin-left="0"
     fit-margin-right="0"
     fit-margin-bottom="0"
     inkscape:zoom="3.1214043"
     inkscape:cx="129.97572"
     inkscape:cy="56.410971"
     inkscape:window-x="0"
     inkscape:window-y="25"
     inkscape:window-maximized="1"
     inkscape:current-layer="svg4254" />
  <rect
     style="opacity:1;fill:#3574de;fill-opacity:1;stroke:none;stroke-width:0.107;stroke-linecap:butt;stroke-linejoin:miter;stroke-miterlimit:4;stroke-dasharray:none;stroke-opacity:1"
     id="rect4264"
     width="81.496063"
     height="81.496063"
     x="120.82677"
     y="25.511841" />
  <rect
     style="opacity:1;fill:#3574de;fill-opacity:1;stroke:none;stroke-width:0.107;stroke-linecap:butt;stroke-linejoin:miter;stroke-miterlimit:4;stroke-dasharray:none;stroke-opacity:1"
     id="rect4266"
     width="115.15748"
     height="9.5669289"
     x="103.11023"
     y="40.748047" />
  <rect
     style="opacity:1;fill:#3574de;fill-opacity:1;stroke:none;stroke-width:0.107;stroke-linecap:butt;stroke-linejoin:miter;stroke-miterlimit:4;stroke-dasharray:none;stroke-opacity:1"
     id="rect4268"
     width="50.669292"
     height="15.23622"
     x="120.82677"
     y="10.629944" />
  <rect
     style="opacity:1;fill:#ededf0;fill-opacity:1;stroke:none;stroke-width:0.107;stroke-linecap:butt;stroke-linejoin:miter;stroke-miterlimit:4;stroke-dasharray:none;stroke-opacity:1"
     id="rect4270"
     width="17.007874"
     height="10.629921"
     x="133.58267"
     y="0" />
  <rect
     style="opacity:1;fill:#403f35;fill-opacity:1;stroke:none;stroke-width:0.107;stroke-linecap:butt;stroke-linejoin:miter;stroke-miterlimit:4;stroke-dasharray:none;stroke-opacity:1"
     id="rect4272"
     width="60.236221"
     height="46.062992"
     x="132.16534"
     y="43.937012" />
  <g
     style="font-style:normal;font-variant:normal;font-weight:normal;font-stretch:normal;font-size:11.25px;line-height:100%;font-family:Sans;-inkscape-font-specification:'Sans, Normal';text-align:start;letter-spacing:0px;word-spacing:0px;writing-mode:lr-tb;text-anchor:start;fill:#c7c081;fill-opacity:1;stroke:none;stroke-width:1px;stroke-linecap:butt;stroke-linejoin:miter;stroke-opacity:1"
     id="text4274">
    <path
       d="m 137.30315,50.281128 6.93786,0 0,0.933838 -2.91137,0 0,7.267456 -1.11512,0 0,-7.267456 -2.91137,0 0,-0.933838 z"
       style=""
       id="path4218" />
    <path
       d="m 145.74614,53.038696 q -0.81299,0 -1.2854,0.637207 -0.47241,0.631714 -0.47241,1.73584 0,1.104126 0.46692,1.741333 0.47241,0.631714 1.29089,0.631714 0.80749,0 1.27991,-0.637207 0.47241,-0.637207 0.47241,-1.73584 0,-1.093139 -0.47241,-1.730347 -0.47242,-0.6427 -1.27991,-0.6427 z m 0,-0.856933 q 1.31836,0 2.07092,0.856933 0.75257,0.856934 0.75257,2.373047 0,1.51062 -0.75257,2.373047 -0.75256,0.856934 -2.07092,0.856934 -1.32385,0 -2.07642,-0.856934 -0.74707,-0.862427 -0.74707,-2.373047 0,-1.516113 0.74707,-2.373047 0.75257,-0.856933 2.07642,-0.856933 z"
       style=""
       id="path4220" />
    <path
       d="m 149.65178,52.330078 1.01074,0 1.26343,4.801026 1.25793,-4.801026 1.19202,0 1.26343,4.801026 1.25793,-4.801026 1.01074,0 -1.60949,6.152344 -1.19202,0 -1.32385,-5.042725 -1.32935,5.042725 -1.19201,0 -1.6095,-6.152344 z"
       style=""
       id="path4222" />
    <path
       d="m 164.70854,55.153564 0,0.494385 -4.64721,0 q 0.0659,1.043701 0.62622,1.593018 0.56579,0.543823 1.57104,0.543823 0.58228,0 1.1261,-0.142822 0.54932,-0.142822 1.08765,-0.428467 l 0,0.955811 q -0.54383,0.230712 -1.11512,0.351562 -0.57129,0.12085 -1.15905,0.12085 -1.47217,0 -2.3346,-0.856934 -0.85693,-0.856934 -0.85693,-2.318115 0,-1.51062 0.81299,-2.39502 0.81848,-0.889892 2.20275,-0.889892 1.24146,0 1.96106,0.802002 0.7251,0.796508 0.7251,2.169799 z m -1.01074,-0.29663 q -0.011,-0.829468 -0.46692,-1.323853 -0.45044,-0.494385 -1.19751,-0.494385 -0.84595,0 -1.35681,0.477906 -0.50537,0.477905 -0.58228,1.345825 l 3.60352,-0.0055 z"
       style=""
       id="path4224" />
    <path
       d="m 169.93254,53.274902 q -0.17029,-0.09888 -0.37353,-0.142822 -0.19776,-0.04944 -0.43946,-0.04944 -0.85693,0 -1.31836,0.560302 -0.45593,0.55481 -0.45593,1.598511 l 0,3.240967 -1.01623,0 0,-6.152344 1.01623,0 0,0.955811 q 0.3186,-0.560303 0.82947,-0.829468 0.51086,-0.274658 1.24145,-0.274658 0.10437,0 0.23072,0.01648 0.12634,0.01099 0.28015,0.03845 l 0.005,1.038208 z"
       style=""
       id="path4226" />
    <path
       d="m 172.15727,51.192993 0,3.081665 1.39527,0 q 0.77453,0 1.19751,-0.401001 0.42297,-0.401001 0.42297,-1.142578 0,-0.736084 -0.42297,-1.137085 -0.42298,-0.401001 -1.19751,-0.401001 l -1.39527,0 z m -1.10962,-0.911865 2.50489,0 q 1.37878,0 2.08191,0.626221 0.70861,0.620727 0.70861,1.82373 0,1.213989 -0.70861,1.834717 -0.70313,0.620727 -2.08191,0.620727 l -1.39527,0 0,3.295899 -1.10962,0 0,-8.201294 z"
       style=""
       id="path4228" />
    <path
       d="m 181.16057,53.274902 q -0.17029,-0.09888 -0.37354,-0.142822 -0.19775,-0.04944 -0.43945,-0.04944 -0.85693,0 -1.31836,0.560302 -0.45593,0.55481 -0.45593,1.598511 l 0,3.240967 -1.01624,0 0,-6.152344 1.01624,0 0,0.955811 q 0.3186,-0.560303 0.82947,-0.829468 0.51086,-0.274658 1.24145,-0.274658 0.10437,0 0.23071,0.01648 0.12635,0.01099 0.28016,0.03845 l 0.005,1.038208 z"
       style=""
       id="path4230" />
    <path
       d="m 184.37407,53.038696 q -0.81299,0 -1.2854,0.637207 -0.47241,0.631714 -0.47241,1.73584 0,1.104126 0.46692,1.741333 0.47241,0.631714 1.29089,0.631714 0.80749,0 1.27991,-0.637207 0.47241,-0.637207 0.47241,-1.73584 0,-1.093139 -0.47241,-1.730347 -0.47242,-0.6427 -1.27991,-0.6427 z m 0,-0.856933 q 1.31836,0 2.07092,0.856933 0.75257,0.856934 0.75257,2.373047 0,1.51062 -0.75257,2.373047 -0.75256,0.856934 -2.07092,0.856934 -1.32385,0 -2.07642,-0.856934 -0.74707,-0.862427 -0.74707,-2.373047 0,-1.516113 0.74707,-2.373047 0.75257,-0.856933 2.07642,-0.856933 z"
       style=""
       id="path4232" />
  </g>
  <g
     transform="scale(1.0000175,0.9999825)"
     style="font-style:normal;font-variant:normal;font-weight:bold;font-stretch:normal;font-size:11.25019646px;line-height:100%;font-family:Sans;-inkscape-font-specification:'Sans, Bold';text-align:start;letter-spacing:0px;word-spacing:0px;writing-mode:lr-tb;text-anchor:start;fill:#c7c081;fill-opacity:1;stroke:none;stroke-width:1px;stroke-linecap:butt;stroke-linejoin:miter;stroke-opacity:1"
     id="text4278">
    <path
       d="m 152.97738,75.520957 0,1.73587 q -0.67567,-0.30213 -1.31838,-0.455941 -0.64271,-0.153811 -1.21401,-0.153811 -0.75807,0 -1.12063,0.208744 -0.36255,0.208744 -0.36255,0.648204 0,0.329596 0.2417,0.516367 0.2472,0.181277 0.88991,0.313116 l 0.9009,0.181277 q 1.36782,0.274663 1.94461,0.834976 0.57679,0.560312 0.57679,1.593045 0,1.356835 -0.80751,2.02152 -0.80201,0.659191 -2.45548,0.659191 -0.78005,0 -1.56558,-0.148318 -0.78554,-0.148318 -1.57108,-0.439461 l 0,-1.785309 q 0.78554,0.417487 1.51614,0.631725 0.7361,0.208744 1.41726,0.208744 0.69216,0 1.0602,-0.230717 0.36805,-0.230717 0.36805,-0.659192 0,-0.384528 -0.25269,-0.593272 -0.24719,-0.208744 -0.99428,-0.373541 l -0.81849,-0.181278 q -1.23049,-0.263676 -1.80179,-0.840469 -0.56581,-0.576792 -0.56581,-1.554592 0,-1.224997 0.79103,-1.884188 0.79103,-0.659192 2.27421,-0.659192 0.67567,0 1.3898,0.104372 0.71412,0.09888 1.47768,0.30213 z"
       style=""
       id="path4261" />
    <path
       d="m 162.74989,82.854459 q -0.79103,0.384528 -1.64248,0.576792 -0.85146,0.192264 -1.75785,0.192264 -2.04898,0 -3.24651,-1.142598 -1.19753,-1.148091 -1.19753,-3.109185 0,-1.983067 1.2195,-3.120172 1.2195,-1.137105 3.3399,-1.137105 0.8185,0 1.56558,0.153812 0.75258,0.153811 1.41726,0.45594 l 0,1.697418 q -0.68666,-0.390022 -1.36782,-0.582286 -0.67567,-0.192264 -1.35684,-0.192264 -1.26344,0 -1.9501,0.70863 -0.68117,0.703138 -0.68117,2.016027 0,1.301902 0.65919,2.010533 0.6592,0.708631 1.87321,0.708631 0.32959,0 0.60975,-0.03845 0.28565,-0.04395 0.51087,-0.131839 l 0,-1.593045 -1.29091,0 0,-1.417261 3.29595,0 0,3.944161 z"
       style=""
       id="path4263" />
    <path
       d="m 164.7,83.282933 0,-1.51614 q 0.50538,0.23621 0.96681,0.357062 0.46144,0.115359 0.91188,0.115359 0.94484,0 1.4722,-0.52186 0.52735,-0.527353 0.62073,-1.560086 -0.37354,0.274663 -0.79652,0.411994 -0.42298,0.137332 -0.91737,0.137332 -1.25796,0 -2.03251,-0.730604 -0.76906,-0.736096 -0.76906,-1.933627 0,-1.323876 0.85695,-2.120398 0.86245,-0.796523 2.30717,-0.796523 1.60403,0 2.48296,1.082172 0.87892,1.082172 0.87892,3.059746 0,2.032506 -1.02724,3.197077 -1.02724,1.159078 -2.81804,1.159078 -0.5768,0 -1.10415,-0.08789 -0.52735,-0.0824 -1.03273,-0.25269 z m 2.6093,-3.949654 q 0.55482,0 0.83497,-0.357062 0.28016,-0.362555 0.28016,-1.082172 0,-0.714124 -0.28016,-1.076679 -0.28015,-0.362555 -0.83497,-0.362555 -0.55482,0 -0.83498,0.362555 -0.28016,0.362555 -0.28016,1.076679 0,0.719617 0.28016,1.082172 0.28016,0.357062 0.83498,0.357062 z"
       style=""
       id="path4265" />
    <path
       d="m 176.57093,79.355252 q 0,-1.538113 -0.29114,-2.164344 -0.28565,-0.631725 -0.96681,-0.631725 -0.68117,0 -0.97231,0.631725 -0.29114,0.626231 -0.29114,2.164344 0,1.554593 0.29114,2.191811 0.29114,0.637218 0.97231,0.637218 0.67567,0 0.96681,-0.637218 0.29114,-0.637218 0.29114,-2.191811 z m 2.11491,0.01648 q 0,2.037999 -0.87892,3.147638 -0.87892,1.104145 -2.49394,1.104145 -1.62052,0 -2.49944,-1.104145 -0.87892,-1.109639 -0.87892,-3.147638 0,-2.043493 0.87892,-3.147638 0.87892,-1.109639 2.49944,-1.109639 1.61502,0 2.49394,1.109639 0.87892,1.104145 0.87892,3.147638 z"
       style=""
       id="path4267" />
  </g>
  <rect
     style="opacity:1;fill:#c7c081;fill-opacity:1;stroke:none;stroke-width:0.107;stroke-linecap:butt;stroke-linejoin:miter;stroke-miterlimit:4;stroke-dasharray:none;stroke-opacity:1"
     id="rect4290"
     width="49.6063"
     height="12.755905"
     x="137.48032"
     y="60.236267" />
  <g
     transform="scale(0.99988441,1.0001156)"
     style="font-style:normal;font-variant:normal;font-weight:normal;font-stretch:normal;font-size:6.24927711px;line-height:100%;font-family:Sans;-inkscape-font-specification:'Sans, Normal';text-align:start;letter-spacing:0px;word-spacing:0px;writing-mode:lr-tb;text-anchor:start;fill:#403f35;fill-opacity:1;stroke:none;stroke-width:1px;stroke-linecap:butt;stroke-linejoin:miter;stroke-opacity:1"
     id="text4286">
    <path
       d="m 160.11456,71.057796 0,-0.561459 q 0.23191,0.109851 0.46992,0.167828 0.23801,0.05798 0.46686,0.05798 0.61028,0 0.93068,-0.408888 0.32345,-0.411939 0.36922,-1.248024 -0.17698,0.26242 -0.44856,0.402785 -0.27157,0.140365 -0.60112,0.140365 -0.68352,0 -1.08325,-0.41194 -0.39669,-0.414991 -0.39669,-1.132071 0,-0.701823 0.415,-1.125969 0.41499,-0.424145 1.1046,-0.424145 0.79032,0 1.20531,0.60723 0.41804,0.604178 0.41804,1.757609 0,1.077146 -0.51263,1.720992 -0.50959,0.640795 -1.37314,0.640795 -0.2319,0 -0.46991,-0.04577 -0.23801,-0.04577 -0.49433,-0.137313 z m 1.22666,-1.931539 q 0.415,0 0.65606,-0.283781 0.24411,-0.283781 0.24411,-0.778108 0,-0.491276 -0.24411,-0.775057 -0.24106,-0.286832 -0.65606,-0.286832 -0.41499,0 -0.6591,0.286832 -0.24106,0.283781 -0.24106,0.775057 0,0.494327 0.24106,0.778108 0.24411,0.283781 0.6591,0.283781 z"
       style=""
       id="path4256" />
    <path
       d="m 166.24483,69.403935 q 0,-0.610281 -0.25326,-0.945936 -0.25022,-0.335654 -0.70488,-0.335654 -0.45161,0 -0.70487,0.335654 -0.25022,0.335655 -0.25022,0.945936 0,0.607229 0.25022,0.942884 0.25326,0.335654 0.70487,0.335654 0.45466,0 0.70488,-0.335654 0.25326,-0.335655 0.25326,-0.942884 z m 0.56146,1.324309 q 0,0.872702 -0.38753,1.296847 -0.38753,0.427197 -1.18699,0.427197 -0.29599,0 -0.55841,-0.04577 -0.26242,-0.04272 -0.50959,-0.134262 l 0,-0.546201 q 0.24717,0.134261 0.48823,0.198341 0.24106,0.06408 0.49127,0.06408 0.55231,0 0.82694,-0.289883 0.27462,-0.286832 0.27462,-0.86965 l 0,-0.277678 q -0.17393,0.302089 -0.4455,0.451608 -0.27158,0.149519 -0.64995,0.149519 -0.62859,0 -1.01307,-0.479071 -0.38448,-0.479071 -0.38448,-1.269384 0,-0.793366 0.38448,-1.272436 0.38448,-0.479071 1.01307,-0.479071 0.37837,0 0.64995,0.149519 0.27157,0.149519 0.4455,0.451608 l 0,-0.518739 0.56146,0 0,2.993428 z"
       style=""
       id="path4258" />
  </g>
  <g
     transform="scale(1.0000192,0.9999808)"
     style="font-style:normal;font-variant:normal;font-weight:normal;font-stretch:normal;font-size:6.25014305px;line-height:100%;font-family:Sans;-inkscape-font-specification:'Sans, Normal';text-align:start;letter-spacing:0px;word-spacing:0px;writing-mode:lr-tb;text-anchor:start;fill:#403f35;fill-opacity:1;stroke:none;stroke-width:1px;stroke-linecap:butt;stroke-linejoin:miter;stroke-opacity:1"
     id="text4282">
    <path
       d="m 144.91847,61.616244 0.9186,0 1.16275,3.100657 1.16885,-3.100657 0.9186,0 0,4.556379 -0.60121,0 0,-4.000946 -1.17496,3.125071 -0.61952,0 -1.17495,-3.125071 0,4.000946 -0.59816,0 0,-4.556379 z"
       style=""
       id="path4235" />
    <path
       d="m 150.28969,62.754576 0.56153,0 0,3.418047 -0.56153,0 0,-3.418047 z m 0,-1.330597 0.56153,0 0,0.711076 -0.56153,0 0,-0.711076 z"
       style=""
       id="path4237" />
    <path
       d="m 154.4829,62.885804 0,0.524915 q -0.23804,-0.131229 -0.47914,-0.195317 -0.23804,-0.06714 -0.48219,-0.06714 -0.54627,0 -0.8484,0.347909 -0.30214,0.344856 -0.30214,0.970481 0,0.625625 0.30214,0.973533 0.30213,0.344857 0.8484,0.344857 0.24415,0 0.48219,-0.06409 0.2411,-0.06714 0.47914,-0.198369 l 0,0.518811 q -0.23499,0.109866 -0.48829,0.164799 -0.25025,0.05493 -0.53407,0.05493 -0.77212,0 -1.22684,-0.485241 -0.45472,-0.485241 -0.45472,-1.309234 0,-0.836201 0.45777,-1.315338 0.46083,-0.479137 1.26041,-0.479137 0.2594,0 0.5066,0.05493 0.2472,0.05188 0.47914,0.158695 z"
       style=""
       id="path4239" />
    <path
       d="m 157.44622,63.27949 q -0.0946,-0.05493 -0.20752,-0.07935 -0.10987,-0.02747 -0.24415,-0.02747 -0.47608,0 -0.73244,0.311287 -0.2533,0.308234 -0.2533,0.888081 l 0,1.800579 -0.56459,0 0,-3.418047 0.56459,0 0,0.531018 q 0.17701,-0.311287 0.46083,-0.460826 0.28382,-0.152592 0.68971,-0.152592 0.058,0 0.12818,0.0092 0.0702,0.0061 0.15564,0.02136 l 0.003,0.576795 z"
       style=""
       id="path4241" />
    <path
       d="m 159.23154,63.148261 q -0.45167,0 -0.71413,0.354012 -0.26245,0.350961 -0.26245,0.964378 0,0.613417 0.2594,0.967429 0.26246,0.350961 0.71718,0.350961 0.44862,0 0.71108,-0.354012 0.26246,-0.354012 0.26246,-0.964378 0,-0.607314 -0.26246,-0.961326 -0.26246,-0.357064 -0.71108,-0.357064 z m 0,-0.476085 q 0.73244,0 1.15054,0.476085 0.4181,0.476086 0.4181,1.31839 0,0.839253 -0.4181,1.31839 -0.4181,0.476085 -1.15054,0.476085 -0.73549,0 -1.15359,-0.476085 -0.41505,-0.479137 -0.41505,-1.31839 0,-0.842304 0.41505,-1.31839 0.4181,-0.476085 1.15359,-0.476085 z"
       style=""
       id="path4243" />
    <path
       d="m 166.47353,61.765784 0,0.60121 q -0.35096,-0.167851 -0.66225,-0.25025 -0.31128,-0.0824 -0.60121,-0.0824 -0.50355,0 -0.77821,0.195317 -0.27162,0.195317 -0.27162,0.555433 0,0.302131 0.18006,0.457774 0.18311,0.152592 0.68972,0.247198 l 0.37232,0.0763 q 0.68971,0.131228 1.01626,0.463878 0.32959,0.329597 0.32959,0.88503 0,0.662246 -0.44556,1.004051 -0.44252,0.341805 -1.30008,0.341805 -0.32349,0 -0.68971,-0.07324 -0.36317,-0.07324 -0.75381,-0.21668 l 0,-0.63478 q 0.37538,0.210576 0.7355,0.31739 0.36011,0.106814 0.70802,0.106814 0.52797,0 0.81484,-0.207524 0.28687,-0.207525 0.28687,-0.592055 0,-0.335701 -0.20753,-0.524914 -0.20447,-0.189214 -0.67445,-0.28382 l -0.37537,-0.07324 q -0.68972,-0.137332 -0.99795,-0.430308 -0.30824,-0.292975 -0.30824,-0.814838 0,-0.604262 0.42421,-0.95217 0.42725,-0.347908 1.17495,-0.347908 0.32044,0 0.65309,0.05798 0.33265,0.05799 0.68056,0.173955 z"
       style=""
       id="path4245" />
    <path
       d="m 170.60876,64.323215 0,0.274665 -2.58185,0 q 0.0366,0.579847 0.34791,0.88503 0.31434,0.302131 0.87282,0.302131 0.32349,0 0.62562,-0.07935 0.30519,-0.07935 0.60427,-0.238043 l 0,0.531019 q -0.30213,0.128176 -0.61952,0.195316 -0.31739,0.06714 -0.64394,0.06714 -0.81789,0 -1.29703,-0.476085 -0.47608,-0.476086 -0.47608,-1.287872 0,-0.839252 0.45167,-1.330597 0.45472,-0.494396 1.22378,-0.494396 0.68971,0 1.0895,0.445567 0.40285,0.442515 0.40285,1.205472 z m -0.56154,-0.164799 q -0.006,-0.460826 -0.25941,-0.73549 -0.25025,-0.274665 -0.66529,-0.274665 -0.46999,0 -0.75381,0.265509 -0.28076,0.265509 -0.32349,0.747698 l 2.002,-0.0031 z"
       style=""
       id="path4247" />
    <path
       d="m 173.51105,63.27949 q -0.0946,-0.05493 -0.20753,-0.07935 -0.10986,-0.02747 -0.24415,-0.02747 -0.47608,0 -0.73243,0.311287 -0.25331,0.308234 -0.25331,0.888081 l 0,1.800579 -0.56458,0 0,-3.418047 0.56458,0 0,0.531018 q 0.17701,-0.311287 0.46083,-0.460826 0.28382,-0.152592 0.68971,-0.152592 0.058,0 0.12818,0.0092 0.0702,0.0061 0.15564,0.02136 l 0.003,0.576795 z"
       style=""
       id="path4249" />
    <path
       d="m 173.70331,62.754576 0.5951,0 1.06814,2.868718 1.06814,-2.868718 0.59511,0 -1.28177,3.418047 -0.76295,0 -1.28177,-3.418047 z"
       style=""
       id="path4251" />
    <path
       d="m 179.12946,63.148261 q -0.45167,0 -0.71413,0.354012 -0.26246,0.350961 -0.26246,0.964378 0,0.613417 0.25941,0.967429 0.26246,0.350961 0.71718,0.350961 0.44862,0 0.71107,-0.354012 0.26246,-0.354012 0.26246,-0.964378 0,-0.607314 -0.26246,-0.961326 -0.26245,-0.357064 -0.71107,-0.357064 z m 0,-0.476085 q 0.73244,0 1.15054,0.476085 0.4181,0.476086 0.4181,1.31839 0,0.839253 -0.4181,1.31839 -0.4181,0.476085 -1.15054,0.476085 -0.73549,0 -1.15359,-0.476085 -0.41505,-0.479137 -0.41505,-1.31839 0,-0.842304 0.41505,-1.31839 0.4181,-0.476085 1.15359,-0.476085 z"
       style=""
       id="path4253" />
  </g>
  <rect
     style="opacity:1;fill:none;fill-opacity:1;stroke:#c7c081;stroke-width:0.39734766;stroke-linecap:butt;stroke-linejoin:miter;stroke-miterlimit:4;stroke-dasharray:none;stroke-opacity:1"
     id="rect4292"
     width="52.752258"
     height="38.579029"
     x="135.90733"
     y="47.679016" />
  <rect
     style="opacity:1;fill:#735344;fill-opacity:1;stroke:none;stroke-width:0.40000001;stroke-linecap:butt;stroke-linejoin:miter;stroke-miterlimit:4;stroke-dasharray:none;stroke-opacity:1"
     id="rect4915"
     width="63.779526"
     height="4.6062994"
     x="21.259903"
     y="76.287415" />
  <rect
     style="opacity:1;fill:#fc6550;fill-opacity:1;stroke:none;stroke-width:0.40000001;stroke-linecap:butt;stroke-linejoin:miter;stroke-miterlimit:4;stroke-dasharray:none;stroke-opacity:1"
     id="rect4917"
     width="63.779526"
     height="4.6062994"
     x="21.259903"
     y="85.748047" />
  <rect
     style="opacity:1;fill:#fec636;fill-opacity:1;stroke:none;stroke-width:0.40000001;stroke-linecap:butt;stroke-linejoin:miter;stroke-miterlimit:4;stroke-dasharray:none;stroke-opacity:1"
     id="rect4919"
     width="63.779526"
     height="4.6062994"
     x="21.259903"
     y="95.208679" />
  <rect
     style="opacity:1;fill:#403f35;fill-opacity:1;stroke:none;stroke-width:0.40000001;stroke-linecap:butt;stroke-linejoin:miter;stroke-miterlimit:4;stroke-dasharray:none;stroke-opacity:1"
     id="rect4913"
     width="49.6063"
     height="28.346457"
     x="0"
     y="73.877991" />
  <rect
     style="opacity:1;fill:#c7c081;fill-opacity:1;stroke:none;stroke-width:0.40000001;stroke-linecap:butt;stroke-linejoin:miter;stroke-miterlimit:4;stroke-dasharray:none;stroke-opacity:1"
     id="rect4921"
     width="8.8582678"
     height="6.023622"
     x="12.401627"
     y="94.500061" />
  <rect
     style="opacity:1;fill:#c7c081;fill-opacity:1;stroke:none;stroke-width:0.40000001;stroke-linecap:butt;stroke-linejoin:miter;stroke-miterlimit:4;stroke-dasharray:none;stroke-opacity:1"
     id="rect4923"
     width="8.8582678"
     height="6.023622"
     x="12.401627"
     y="85.039429" />
  <rect
     style="opacity:1;fill:#c7c081;fill-opacity:1;stroke:none;stroke-width:0.40000001;stroke-linecap:butt;stroke-linejoin:miter;stroke-miterlimit:4;stroke-dasharray:none;stroke-opacity:1"
     id="rect4925"
     width="8.8582678"
     height="6.023622"
     x="12.401627"
     y="75.578796" />
  <rect
     style="opacity:1;fill:#fec636;fill-opacity:1;stroke:none;stroke-width:0.40000001;stroke-linecap:butt;stroke-linejoin:miter;stroke-miterlimit:4;stroke-dasharray:none;stroke-opacity:1"
     id="rect4919-1"
     width="17.716536"
     height="4.6062994"
     x="103.11023"
     y="85.748047" />
</svg>
